<svg id="Layer_1" data-name="Layer 1" xmlns="http://www.w3.org/2000/svg" viewBox="0 0 258.72 300.11"><defs><style>.cls-1{fill:#20285c;}</style></defs><path class="cls-1" d="M33.4,59.36a2.91,2.91,0,0,0-.66,0,16.72,16.72,0,0,0-4,1.47c-.87.47-1.74,1-2.62,1.43a29.22,29.22,0,0,0-3.26,2.27c-.62.46-1.22,1-1.86,1.39a32.4,32.4,0,0,0-3.71,2.79.7.7,0,0,1-.27.19.66.66,0,0,1-.46,0,.46.46,0,0,1-.18-.4A13.6,13.6,0,0,1,17,67c.57-1.19,1.25-2.35,1.76-3.57a62,62,0,0,1,3.58-6.92,56.81,56.81,0,0,1,3.62-5.55c1.57-2.14,3.09-4.32,4.65-6.47A75.67,75.67,0,0,1,41.94,32,73,73,0,0,1,58.18,21.15a77.1,77.1,0,0,1,17.36-6,78.5,78.5,0,0,1,10.33-1.55,71.82,71.82,0,0,1,10.78-.15,88.76,88.76,0,0,1,9.06,1,64.48,64.48,0,0,1,7.74,1.84L118.67,18l.58.16c.27-.22.07-.32,0-.4-.35-.28-.7-.55-1.06-.8A36.23,36.23,0,0,0,105,11.2c-2-.42-4-.9-6-1.12-.37,0-.74-.15-1.25-.25.22-.18.3-.31.42-.35.58-.19,1.16-.4,1.75-.53,2.42-.54,4.85-1.11,7.29-1.57a83.77,83.77,0,0,1,9.21-1.21,57.1,57.1,0,0,1,11.09.48,54,54,0,0,1,11.13,2.57,131.1,131.1,0,0,1,18.17,7.66c.93.49,1.85,1,2.76,1.54a2.42,2.42,0,0,0,1.58.33c.93-.09,1.87-.15,2.81-.18a55.16,55.16,0,0,1,15.14,1.63,38.74,38.74,0,0,1,8.81,3.38c7.25,3.88,12.59,9.5,15.4,17.33a36.58,36.58,0,0,1,1.93,16.34,65.1,65.1,0,0,1-1,6.55,27.9,27.9,0,0,1-1.55,4.9c-.17.4-.34.8-.49,1.17.28.33.46.08.61,0a17.93,17.93,0,0,1,4.76-2.31,18.22,18.22,0,0,1,10.62-.23A12.72,12.72,0,0,1,223,69.84a10.24,10.24,0,0,1,3.64,6.7,5.09,5.09,0,0,1-.23,2.78.32.32,0,0,1-.53.12c-.31-.39-.61-.79-.93-1.16a7.2,7.2,0,0,0-4.37-2.51,7.06,7.06,0,0,0-3.59.37,10.31,10.31,0,0,0-4.85,3.77c.11.43.43.42.66.5a15.17,15.17,0,0,1,6.35,4.39A11.39,11.39,0,0,1,222,92.05a10.85,10.85,0,0,1-.89,5.18,6.79,6.79,0,0,1-1.24,2,1.27,1.27,0,0,1-.42.21,4.85,4.85,0,0,1-.39-1.63A10.46,10.46,0,0,0,216,92a8.24,8.24,0,0,0-9-1.89,12.52,12.52,0,0,0-5.89,4.69,14.53,14.53,0,0,0-2.31,5.64,2.39,2.39,0,0,0,.19,1.13c.52,1.57,1.08,3.13,1.6,4.71,1,3.15,2.08,6.3,3.09,9.46.34,1,.58,2.13.86,3.19.23.2.41.06.58-.07a10.9,10.9,0,0,0,3.49-5.35,25.92,25.92,0,0,0,1.26-5.32,17.79,17.79,0,0,0-.05-4.78,2,2,0,0,1,0-.49s.06-.08.1-.09a.22.22,0,0,1,.16,0,14.23,14.23,0,0,1,1,1.33,33.91,33.91,0,0,1,3.84,9.49c.24,1,.36,2.06.55,3.16.15-.07.32-.11.38-.21a23.14,23.14,0,0,0,2.91-6.66,2.29,2.29,0,0,1,.3-.58.36.36,0,0,1,.56,0c0,.1.14.18.16.28a4.67,4.67,0,0,1,.17.81,34.23,34.23,0,0,1-3.84,19.92,40.17,40.17,0,0,1-3.18,5.06,24.72,24.72,0,0,1-3.12,3.43c-.24.22-.55.39-.56.82a2.49,2.49,0,0,0,.6.2,40.2,40.2,0,0,1,7.39,1.86,57.32,57.32,0,0,1,12.34,5.64,47.92,47.92,0,0,1,9.65,7.79,49.9,49.9,0,0,1,7.71,10.34,44.11,44.11,0,0,1,3.07,6.79,63.43,63.43,0,0,1,2.07,7,49,49,0,0,1,1.2,8.86c.06,1.5.17,3,.17,4.48a74.65,74.65,0,0,1-.91,11.56,72.61,72.61,0,0,1-1.58,7.28,7.21,7.21,0,0,1-1.11,2.4,4.51,4.51,0,0,1-.94.91,1.59,1.59,0,0,1-2.35-.3,7.63,7.63,0,0,1-.48-.68,53.86,53.86,0,0,0-3.77-4.62,10.32,10.32,0,0,0-1-.91,67.62,67.62,0,0,0-6.89-4.89,26.33,26.33,0,0,0-2.81-1.41,16.54,16.54,0,0,1-2.09-1,6.84,6.84,0,0,0-1.41-.45c-1.14-.4-2.26-.87-3.41-1.24-1.58-.5-3.17-1-4.77-1.37-1.18-.29-2.39-.44-3.59-.62s-2.19-.27-3.29-.44c-.76-.12-1.51-.29-2.27-.46a5.68,5.68,0,0,0-2-.16.48.48,0,0,0-.45.57,1.65,1.65,0,0,0,.07.32c.53,1.3.06,2.5-.38,3.69a3.36,3.36,0,0,1-.44.69c-.19.28-.38.54-.58.81a2,2,0,0,0-.4,1.56,6.63,6.63,0,0,1,.06,1A5.62,5.62,0,0,1,204,210l-.59.37c-.21.37,0,.53.1.71a17.59,17.59,0,0,0,3.21,4,28.48,28.48,0,0,1,2.54,2.83,45.53,45.53,0,0,1,5.94,9.73,14.9,14.9,0,0,1,1,2.61c.3,1.12.75,2.19,1,3.31a41.37,41.37,0,0,1,1.33,9,38.93,38.93,0,0,1-.17,6.11A30.28,30.28,0,0,1,217.3,254,43.07,43.07,0,0,1,211,266.73a37,37,0,0,1-18.17,13.62,31.1,31.1,0,0,1-10.42,1.74,30.2,30.2,0,0,1-18-5.91,32.37,32.37,0,0,1-4.39-3.79c-.14-.15-.33-.29-.24-.55.35-.12.64.08.93.2A25.69,25.69,0,0,0,168,273.8a11.5,11.5,0,0,0,1.16.08,21.83,21.83,0,0,0,7.54-1,14.69,14.69,0,0,0,6.09-3.59,2.48,2.48,0,0,0,.42-.5.64.64,0,0,0,0-.43c0-.05-.21-.1-.3-.07-.42.13-.83.29-1.25.43a15.45,15.45,0,0,1-6.22.75,23.82,23.82,0,0,1-5.52-1.11c-.94-.32-1.89-.61-2.83-.93a27.09,27.09,0,0,1-9.48-5.66,31.23,31.23,0,0,1-3.54-3.73c-.17-.21-.31-.46-.72-.39a17.11,17.11,0,0,0-.35,1.92,76.16,76.16,0,0,0-.14,13.59,63.37,63.37,0,0,0,2.86,13.62c.52,1.63.93,3.29,1.35,4.95a7,7,0,0,1,.19,1.65,2.79,2.79,0,0,1-2.8,2.87,7.44,7.44,0,0,1-2.75-.54c-2.7-1-5.29-2.25-7.9-3.46-5-2.33-10.09-4.53-15.26-6.5-3.66-1.4-7.4-2.61-11.12-3.86-5.55-1.87-11.23-3.35-16.85-5-4.24-1.25-8.5-2.42-12.81-3.43-4-.93-8-1.71-12.05-2.29-3.67-.53-7.35-.95-11-1.32s-7.17-.51-10.77-.63c-1.93-.06-3.87-.17-5.79-.37a13.19,13.19,0,0,1-3-.74,5.31,5.31,0,0,1-3.4-3.8,8,8,0,0,1,.21-4.74,35.2,35.2,0,0,1,2.31-5.5,180.68,180.68,0,0,0,8.34-17.7,78.55,78.55,0,0,0,4.68-16.24c.29-1.69.47-3.39.68-5.1a18.84,18.84,0,0,0-.32-5.94A46.84,46.84,0,0,0,54,197.9a33.75,33.75,0,0,0-2-3.79,73.36,73.36,0,0,0-7.38-9.81,96.85,96.85,0,0,1-7.82-10.1,71.58,71.58,0,0,1-6.31-11.85A42.13,42.13,0,0,1,28.81,158c-.59-1.9-1.24-3.78-1.8-5.69a49.18,49.18,0,0,1-1.92-13.1c0-.44-.06-.88-.1-1.31,0,0-.07-.1-.1-.09s-.26,0-.28.1c-.34,1-.7,2-1,3a32.54,32.54,0,0,0-1.11,12.49c0,.09-.06.19-.09.29-.27.07-.42-.13-.55-.29a25,25,0,0,1-3.34-5.33c-.63-1.41-1.23-2.84-1.78-4.29a35.85,35.85,0,0,1-2.33-11.49c0-1.05-.08-2.1-.19-3.14a34.7,34.7,0,0,1,.91-10.7c.39-1.94.75-3.89,1.15-5.94-.23.07-.41.08-.48.17a21.93,21.93,0,0,0-4.67,8.87c-.24,1-.45,1.94-.67,2.91a17.33,17.33,0,0,0-.42,3.29,15.5,15.5,0,0,1-.21,1.8.7.7,0,0,1-.32.34c-.14.08-.48-.09-.56-.26a1.94,1.94,0,0,1-.13-.3,32.79,32.79,0,0,1-1.43-6.12,46.08,46.08,0,0,1-.14-7.79c.08-2.37.28-4.73.46-7.1a37.81,37.81,0,0,1,1.1-6.69c.35-1.34.68-2.68,1-4a63.48,63.48,0,0,1,3.43-10.21,77,77,0,0,1,8.41-15,67.3,67.3,0,0,1,8.37-9.63C31,61.8,32,60.91,33,60c.2-.18.42-.35.38-.68l.08-.08Zm92.25,209.3.07,0h-.11l0-.06Zm-69-185.48v0l-.07,0Zm153,85.32.09,0h-.11l0,.08ZM34.06,86.91a8,8,0,0,0,1,0c.13,0,.23-.19.35-.29a9.13,9.13,0,0,0,1.48-.1,40.72,40.72,0,0,1,8.38-.77,76.62,76.62,0,0,1,9.58.44c.5,0,.61-.06.69-.62a2.64,2.64,0,0,0,.15-.6c0-.27-.13-.53.15-.74,0,0,0-.24-.09-.26a4.42,4.42,0,0,0-.93-.31c-.49-.06-1-.06-1.49-.09-1.7-.09-3.41-.22-5.12-.26a64.54,64.54,0,0,0-10.39.67,21,21,0,0,0-5.1,1.33c-.25.1-.5.22-.51.54l.42.72a26.85,26.85,0,0,1,5.37-1l0,0a1,1,0,0,1-.68.37c-.52.11-1,.24-1.55.4-.12,0-.2.22-.31.33-.48-.06-1-.19-1.33.33-.21,0-.43,0-.65,0,0,0-.09.12-.14.18s.19.12.28.12S34,87.18,34.06,86.91Zm199.28,85.34c.53-.07.93.3,1.41.4,0,0,.1-.05.12-.1s0-.11,0-.14a2,2,0,0,0-.42-.48,15.8,15.8,0,0,0-4.15-2,61.88,61.88,0,0,0-7.22-1.79c-2.88-.55-5.78-.89-8.69-1.17-1-.09-2-.12-3-.15a2,2,0,0,0-.64.12c-.09,0-.16.14-.26.24.22.42,0,1,.34,1.43l1.26.16,5.27.48a68,68,0,0,1,8.62,1.55,25.09,25.09,0,0,1,6.24,2.16,13.7,13.7,0,0,0,1.36.6,2.22,2.22,0,0,0,.6,0l-.94-1.25ZM32.68,83.53l.1.12c-.22.42-.93.45-.87,1.15a6.21,6.21,0,0,0,1.75-.42A26.81,26.81,0,0,1,41,83a61.48,61.48,0,0,1,6.93-.26c2.26.1,4.52.12,6.77.32.22,0,.45,0,.67,0a.48.48,0,0,0,.49-.36c.11-.35,0-.74.27-1.06,0,0-.07-.22-.15-.26a2.18,2.18,0,0,0-.61-.2,48.42,48.42,0,0,0-5-.34c-1.65,0-3.31-.06-5-.06a65.24,65.24,0,0,0-7.27.47,23,23,0,0,0-5.31,1.24,4,4,0,0,0-1.59.86s0,.19,0,.28.08.09.12.08Zm198.64,101.4a1.93,1.93,0,0,1,1.26.26.68.68,0,0,0,.79-.12c-.09-.13-.15-.31-.28-.38a9.78,9.78,0,0,0-1-.5,57.09,57.09,0,0,0-8.38-2.57c-1-.24-1.92-.51-2.9-.68a62.53,62.53,0,0,0-7.22-.94c-1.05-.06-2.1-.08-3.14-.09a1.74,1.74,0,0,0-.64.13.32.32,0,0,0-.13.26.35.35,0,0,0,.18.23c.18.09.44,0,.55.24l-.39.73a1.67,1.67,0,0,0,.45.24c.72.07,1.43.15,2.15.16a39.51,39.51,0,0,1,5.43.57c1.52.26,3,.59,4.54.93,2.2.51,4.37,1.13,6.51,1.84a9.5,9.5,0,0,1,2.64,1.33,5.39,5.39,0,0,1-1.76-.46,72.76,72.76,0,0,0-12.66-3.22c-.65-.1-1.3-.25-2-.3-1.43-.11-2.87-.18-4.3-.26a1.77,1.77,0,0,0-.64.12c-.16.05-.32.22-.2.36s.1.35-.09.49c-.4.3.13.83-.27,1.14.08.08.14.21.22.23a8.79,8.79,0,0,0,1.14.21c.43.05.88,0,1.32.1,2.68.37,5.36.72,8,1.26a40.35,40.35,0,0,1,4.84,1.11c1.51.5,3,1,4.51,1.61a1.79,1.79,0,0,0,1.87-.17l0,.1v-.07l-1.49-1a5,5,0,0,1,1.66.37,1,1,0,0,0,.32-.06c.08-.35.28-.68.11-1l-.64-.51c.32,0,.65,0,1-.07s.3-.41.16-.54l-.37-.34c-.33-.27-.83-.28-1.08-.69ZM36.35,69.29l0,0c0,.1,0,.25-.1.28a6,6,0,0,1-.9.4c-.58.19-1.16.35-1.74.55A.85.85,0,0,0,33,71c0,.08,0,.25.1.26a1.68,1.68,0,0,0,.63,0c1.25-.23,2.45-.67,3.67-1a43.89,43.89,0,0,1,8.83-1.38c.82-.05,1.65-.16,2.47-.18,1.22,0,2.44,0,3.65,0,1.75.09,3.49.25,5.26.39a1.92,1.92,0,0,1-.15-1.78A12.27,12.27,0,0,0,55.68,67a66.89,66.89,0,0,0-8.61-.17,74,74,0,0,0-7.58.79,40.77,40.77,0,0,0-6.06,1.64,4.87,4.87,0,0,0-.87.47s0,.19,0,.28a.17.17,0,0,0,.13.1,1.93,1.93,0,0,0,.48,0C34.24,69.91,35.25,69.43,36.35,69.29ZM230,174.27a2.19,2.19,0,0,1,1.28.23c.6.26,1.21.49,1.87.76l.47-.91c-.21-.16-.38-.31-.56-.42a19.72,19.72,0,0,0-4.41-1.88,64.84,64.84,0,0,0-13.17-2.48c-.33,0-.66-.07-1-.13a20.09,20.09,0,0,0-3.64-.14c-.37,0-.39.08-.37.64s0,1.06,0,1.65c.26,0,.52.1.79.13,2.14.29,4.31.18,6.44.56,1.58.28,3.18.36,4.76.68a42.06,42.06,0,0,1,6.89,1.8,5,5,0,0,0,1,.16c.46.57,1.19.64,1.8.94.06,0,.18-.05.39-.11-.75-.41-1.36-.93-2.22-.8l-.19-.42-.09-.29Zm3-16a4,4,0,0,1,1.42.42c.26.07.51.18.78.24a.34.34,0,0,0,.28-.11.26.26,0,0,0,0-.28,2.82,2.82,0,0,0-.65-.5,38.84,38.84,0,0,0-8.64-3.31c-1.56-.37-3.11-.78-4.69-1.08a66.16,66.16,0,0,0-7.56-.95,11.65,11.65,0,0,0-2.7,0,3.8,3.8,0,0,1,.07,1,3,3,0,0,1-.43.81c.63,0,1.18.09,1.74.1a37.61,37.61,0,0,1,6.26.61,65.46,65.46,0,0,1,6.64,1.45,39.28,39.28,0,0,1,6.52,2.41c.84.4,1.73.71,2.6,1.05.07,0,.22-.07.27-.15a.32.32,0,0,0,0-.3,1.49,1.49,0,0,0-.44-.46c-.34-.2-.7-.33-1-.51-.19-.1-.38-.22-.37-.49Zm.32,4.31.09,0h-.12c0-.35-.33-.37-.54-.49-.56-.29-1.23-.36-1.65-.9l0,0a9.42,9.42,0,0,1,3,.71c.23-.31,0-.44-.1-.6v0l.54-.28a.92.92,0,0,0-.62-.6,20,20,0,0,1-2.12-.93,26.6,26.6,0,0,0-5.09-2c-1.68-.53-3.42-.89-5.13-1.32a58.52,58.52,0,0,0-5.88-.95,34,34,0,0,0-3.64-.22,2,2,0,0,0-.64.13c-.07,0-.11.15-.14.24s0,.1.09.12l.45.18-.63.34c.08.46-.2.88.09,1.31a5.3,5.3,0,0,0,.62.11c2.08.21,4.16.43,6.23.75a68.35,68.35,0,0,1,8.39,1.9,28.26,28.26,0,0,1,4.64,1.77A5.51,5.51,0,0,0,233.33,162.63ZM33.4,72.64l.13.53c.88.09,1.76-.54,2.83,0-.52.18-.87.31-1.23.42s-.81-.06-1,.49l.78-.07c.28,0,.55,0,.82-.07a4.75,4.75,0,0,0,.64-.2A36.62,36.62,0,0,1,41.8,72.5c1-.14,2-.2,3-.31a48.57,48.57,0,0,1,6.93-.27c1.48,0,3,0,4.46.07a3.51,3.51,0,0,1,.56.08c.46-.78.07-1.38.35-1.94,0-.08-.11-.31-.22-.39a1,1,0,0,0-.47-.12,63.81,63.81,0,0,0-6.77-.34,56.33,56.33,0,0,0-6.1.47,23.59,23.59,0,0,0-3.43.48,36,36,0,0,0-4.32,1.1c-.4.16-.85.22-1.27.35a6.12,6.12,0,0,0-.93.35c-.07,0-.1.17-.15.27Zm71.41,75.72a1.23,1.23,0,0,0,.18-.94.56.56,0,0,1,.56-.65,1.22,1.22,0,0,1,1.07.29c.2.2.4.37.58.55.19-.11.35-.27.46-.25.29.09.37,0,.41-.28a.24.24,0,0,1,.37-.19c.15.07.42.19.44.16.32-.48.74-.26,1.21-.18v-.82a.57.57,0,0,1,.38-.65c.48-.15.55-.48.44-.91-.58-2.3-1.15-4.6-1.74-6.9a2.66,2.66,0,0,0-.39-.72c0-.07-.17-.08-.28-.12l-.73.59a2.77,2.77,0,0,0,.23,1.49,5.21,5.21,0,0,1,.29.95,1.1,1.1,0,0,1-.78,1.3c-.61-1-.42-2.29-1.24-3.3-.06.25-.15.41-.12.53.14.54.3,1.06.46,1.59a3.37,3.37,0,0,1,.22,1.44s-.07.08-.11.09-.14,0-.15,0a7.17,7.17,0,0,1-.41-.89,11.15,11.15,0,0,0-.81-2.51c0-.08-.17-.13-.27-.22a1.75,1.75,0,0,1-.43.17c-.22,0-.44,0-.54.23-.14,1.19.87,2.16.63,3.47-.2-.18-.37-.26-.41-.39-.19-.57-.33-1.16-.51-1.74a10,10,0,0,0-.4-1.08.28.28,0,0,0-.26-.12.9.9,0,0,0-.35.29.5.5,0,0,0-.06.32c.07.43.17.86.24,1.3s.1.75.15,1.13l0,0c-.25-.06-.31-.26-.38-.47-.22-.73-.45-1.46-.71-2.18,0-.1-.26-.15-.4-.17s-.17.16-.17.25a3.93,3.93,0,0,0,.07,1,10.33,10.33,0,0,1,.62,3.53,1.42,1.42,0,0,0,.1.48c.26,1,.52,1.9.79,2.84.06.21.12.52.26.58.56.23.62.9,1.11,1.17ZM127.05,30.1l0,0a.49.49,0,0,0-.57-.21,2,2,0,0,0-.36,1.4c.17,1.42.28,2.86.43,4.28a7.93,7.93,0,0,0,.26,1.47c.15.52.06,1.12.49,1.62a3.37,3.37,0,0,1,2.22.8c.21-.29.69-.22.78-.47a.71.71,0,0,1,.86-.56c1.44.23,2.83-.26,4.25-.33a1.05,1.05,0,0,0,.89-1.21c-.2-1.19-.39-2.4-.66-3.58a13.2,13.2,0,0,0-2-4.52,2,2,0,0,0-.66-.46s-.2.11-.2.17a2.49,2.49,0,0,0,.07.51l-.6.24c-.35.12-.4.8-.87.57s-.74.13-1.12,0a3.49,3.49,0,0,0-.65,0c-.2,0-.4-.05-.64-.08l-.26.66c-.07.17,0,.42-.24.49-.13-.4-.33-.71-.79-.75ZM132.44,47l-.58.06c-.21.31.13.71-.29,1-.18-.25-.36-.51-.56-.74,0,0-.25,0-.27,0a6.21,6.21,0,0,0-.26.59c0,.09-.12.2-.2.22s-.19-.09-.22-.17-.11-.47-.37-.5-.31.25-.31.44c0,.39-.25.58-.45.84a2.08,2.08,0,0,0-.31,2.33.44.44,0,0,0,.51.29c.05,0,.14.13.18.21a.18.18,0,0,1,0,.16c-.34.34-.37.73,0,1a2.3,2.3,0,0,1,.81,1.73c.11.87.33,1.73.51,2.6.34,1.62.69,3.24,1,4.86q.34,1.69.63,3.42c.37,2.18,1,4.3,1.36,6.49.4,2.56.81,5.12,1.15,7.69.53,3.89,1.16,7.77,1.92,11.62.41,2.11.79,4.23,1.31,6.32s1,4.07,1.5,6.12a18.32,18.32,0,0,0,.71,2.71c.2.5.1,1.11.25,1.64.54,1.91,1,3.84,1.44,5.78.58,2.41,1.21,4.82,1.86,7.22a19.51,19.51,0,0,0,.84,2.15.51.51,0,0,0,.51.35.66.66,0,0,1,.79.42c.16.27.33.53.55.88l.22-.54,0,0,.34-.06.05.06-.06,0c-.1-1.12,0-1.2,1.14-.92a1.76,1.76,0,0,1,.73.28c.11.08.39.13.42.09.17-.29.54.07.7-.25.06-.12.31-.28.35-.25.56.39,1.12-.14,1.7,0a1.43,1.43,0,0,0,1.2-.2,2,2,0,0,0,.05-.56c-.27-1.3-.52-2.6-.86-3.88-.65-2.4-1.42-4.76-1.94-7.2-.11-.53-.17-1.09-.32-1.62-.82-2.93-1.6-5.86-2.21-8.85-.65-3.14-1.28-6.29-2-9.41-.76-3.35-1.54-6.69-2.1-10.07-.31-1.86-.58-3.72-1-5.54-.29-1.18-.51-2.38-.71-3.58-.28-1.75-.52-3.5-.77-5.25-.42-3-.8-5.91-1.29-8.85S138.72,52,138.1,49c0-.22-.09-.44-.16-.65a1,1,0,0,0-.22-.43c-.32-.3-.69-.55-1-.84s-.28-1-.85-1.18l-.67.43c-.12.39.31.77,0,1.12a1,1,0,0,1-1.29-.65,1.2,1.2,0,0,0-.15.3c0,.2,0,.47-.28.49-.11,0-.24-.18-.34-.3s-.14-.31-.26-.39-.31,0-.41.12ZM114.1,159.7l0-.08,0,0a5,5,0,0,1-.17,1.85c-.15-.69-.28-1.28-.42-1.86-.36-1.45-.71-2.89-1.1-4.32a2.16,2.16,0,0,0-.44-.6,9.6,9.6,0,0,1-1.63.53,7.76,7.76,0,0,1-1.54-.11c-.34.24-.48.74-1,.48h-.07l.09,0a1.65,1.65,0,0,1-.24.22c-.29.24-.52.24-.67,0s-.41-.8-.61-1.2a3.29,3.29,0,0,0,.08,1c0,.46,0,.85-.55,1.06a6.11,6.11,0,0,0-1.07.65,6.87,6.87,0,0,0,.66,3.25,17.1,17.1,0,0,1,1.32,4.76c.1.88.21,1.76.32,2.63.22,1.7.45,3.39.66,5.09.09.82.11,1.66.2,2.48.25,2.58.55,5.16.76,7.75.17,2.09.24,4.18.35,6.28.06,1.21,0,2.43.19,3.64.24,1.86.22,3.74.36,5.61.18,2.48.25,5,.37,7.45,0,.6.09,1.21.1,1.82,0,1.76,0,3.53.06,5.3,0,2.1.11,4.2.1,6.3,0,2.37-.09,4.75-.15,7.12,0,1.21-.09,2.43-.14,3.64,0,.72-.09,1.43-.12,2.15-.08,1.88-.07,3.75-.32,5.62q-.41,3.12-.71,6.25c-.27,2.81-.46,5.62-.73,8.42a38.18,38.18,0,0,1-.69,5.09c-.28,1.23-.6,2.46-.89,3.7a6.41,6.41,0,0,0-.13,1c0,.08.11.24.17.24a10.94,10.94,0,0,0,1.62,0c.18,0,.32-.29.49-.42s.06-.69.58-.75c0,.33-.11.64-.14.95a1.29,1.29,0,0,0,.06.48.28.28,0,0,0,.25.12,2.93,2.93,0,0,0,.44-.21v0a.66.66,0,0,0,.54.73,7.76,7.76,0,0,0,1.11.1c.11-.32.22-.57.3-.83.14-.48.23-1,.41-1.43s.24-.74.7-.84l0,0c-.21.92-.43,1.83-.64,2.74,0,.11,0,.22,0,.33a.51.51,0,0,0,.51.52c.16,0,.33,0,.52-.06s.16.26.26.39c.24.32.62.32.78,0a3.71,3.71,0,0,0,.19-.46,28.62,28.62,0,0,0,1.28-5.64c.36-3,.78-5.91,1.19-8.87s.5-5.72.78-8.57c.18-1.76.19-3.53.27-5.3.08-1.6.06-3.21.23-4.8.23-2,.17-4.08.25-6.12.06-1.77,0-3.54.06-5.3s0-3.3,0-5c0-1.33,0-2.65,0-4,0-1.88-.08-3.75-.16-5.63-.1-2.2-.21-4.41-.38-6.61-.15-1.92-.06-3.86-.38-5.78a11.55,11.55,0,0,1-.09-1.32c-.09-2.32-.11-4.64-.31-6.95-.27-3.09-.53-6.17-1-9.23-.13-.93-.24-1.86-.34-2.8-.18-1.7-.31-3.4-.52-5.1-.28-2.3-.62-4.6-1-6.89A2.82,2.82,0,0,0,114.1,159.7ZM147.3,27.11c-.27,0-.58-.41-.8.13-.07.16-.33.24-.5.37s-.1.58-.48.61c-.07-.09-.14-.17-.2-.26s-.07-.21-.13-.3c-.17-.29-.3-.3-.62,0s-.34.27-.77-.07a.48.48,0,0,0-.27.54c.14,1,.26,2.08.45,3.11A26.62,26.62,0,0,0,145.41,37a4.52,4.52,0,0,1,.25,1c.7,3.79,1.41,7.59,2.1,11.39.24,1.3.41,2.62.66,3.92.59,3.09,1.22,6.18,1.8,9.27s1.12,6.19,1.69,9.28c.18,1,.38,2.06.59,3.09.56,2.81,1,5.64,1.42,8.48.24,1.7.39,3.41.75,5.08.7,3.29,1.51,6.57,2.29,9.85a1.27,1.27,0,0,0,.33.72,1.12,1.12,0,0,1,.41,1.16c0,.2.35.3.52.14s.29-.33.43-.49l0,0c.54-.09.54-.09.64-.63v0l1,.26a81.67,81.67,0,0,1,8.88-3.45c.83-.29,1.7-.46,2.56-.67,1.24-.31,2.47-.6,3.71-.89a41.67,41.67,0,0,1,4.7-1c1.7-.2,3.39-.41,5.07-.78a16.13,16.13,0,0,0,10.37-7.38A20.86,20.86,0,0,0,198,79.6c0-.1,0-.21,0-.32a2,2,0,0,0-1.1-.13c-.58.08-.9.61-1.46.67l0,0,.31-1c-.14-.26-.38-.2-.56-.27l0,0c-.42-.44-.42-.44-1.08-.46v0c-.12-.43-.18-.46-.46-.25s-.25.35-.51.28l0,0c.06-.6-.42-.91-.7-1.34a.25.25,0,0,0,.13,0s0,0,0-.08l-.13.14-.6-.53a3.19,3.19,0,0,0-1,1.26,20,20,0,0,1-2.35,3.2,8.9,8.9,0,0,1-4.55,2.87c-.75.17-1.51.32-2.27.45-2.18.35-4.36.67-6.54,1a26.15,26.15,0,0,0-4.17,1c-2.36.78-4.73,1.51-7.1,2.26a.59.59,0,0,1-.32,0,.75.75,0,0,1-.4-.22,1.83,1.83,0,0,1-.22-.62c-.42-2.27-.74-4.57-1.27-6.83-.15-.64-.25-1.3-.35-2l-1.41-9c-.06-.38-.17-.75-.22-1.13-.19-1.48-.31-3-.56-4.43-.48-2.89-.77-5.8-1.4-8.67-.22-1-.48-2-.61-3.08-.27-2.14-.86-4.21-1.3-6.32-.54-2.59-1.23-5.15-1.75-7.74s-.93-5.22-1.39-7.83a2.14,2.14,0,0,0-.31-.93,3.93,3.93,0,0,1-.84-1.77.72.72,0,0,0-.39-.47.91.91,0,0,1-.62-.47,10.77,10.77,0,0,0-1-1.81c0,.26-.07.4-.08.55s0,.3-.05.44l-.81.26s0,.09-.11.2a5.82,5.82,0,0,1,.21.73.43.43,0,0,1-.09.3s-.21,0-.24-.07c-.15-.23-.26-.48-.39-.72s-.35-.18-.62.14ZM130.08,128.68l.06.24-.09-.2c.36-.12.73-.23,1.09-.37s.67-.3,1-.43c.41.11.19.7.69.68v-1l2.09-1.09c0-.2,0-.46.14-.61a2,2,0,0,0,.2-2c-.19-.57-.28-1.18-.44-1.76-.48-1.7-1-3.4-1.47-5.09-1-3.34-1.91-6.68-2.9-10s-1.65-6.52-2.32-9.82c-.4-2-.72-4-1.14-6-.46-2.21-1-4.41-1.52-6.62-.73-3.28-1.43-6.57-2.17-9.86-.59-2.58-1.22-5.16-1.81-7.74-.15-.64-.25-1.3-.35-2-.32-2-.58-3.93-.94-5.88-.33-1.79-.76-3.56-1.13-5.35a12.19,12.19,0,0,1-.33-3.61,13.24,13.24,0,0,0-.43-3.44c0-.17-.25-.35-.43-.44s-.3.06-.46.11l0,0c-.1,0-.19-.15-.29-.15-.43,0-.86.05-.94-.57a.56.56,0,0,0-.32-.34,6.19,6.19,0,0,0-1.08-.42c-2.72-.74-5.48-1.3-8.26-1.81-2.61-.47-5.22-.9-7.86-1.2a19.63,19.63,0,0,0-2.65-.1c-.32,0-.67,0-.83.4-.1.22.18.34.76.32l1.83,0c.18,0,.39-.07.53.21h-2.6l-2.79,1.67c-.46,2.39-.94,4.77-1.39,7.16-.21,1.09-.37,2.18-.57,3.27-.51,2.77-1.06,5.54-1.54,8.32-.45,2.62-.85,5.24-1.23,7.87-.28,1.86-.5,3.72-.74,5.59-.29,2.19-.59,4.38-.85,6.58-.24,2-.55,4-.65,5.94-.15,3-.44,6.06-.65,9.1s-.43,6.07-.4,9.11,0,6-.1,9c0,2.43-.16,4.86-.24,7.29l-.21,5.3q-.15,3.65-.29,7.29c0,.66,0,1.33,0,2a8.87,8.87,0,0,0,.14,1.14s.15.09.23.12.07-.08.1-.13l.21-.24a.78.78,0,0,1,.41.66c.08.41.53.35.71.62s.41.24.56-.07a5.53,5.53,0,0,1,1.7-.34c.72,0,.72,0,1.08.3a.38.38,0,0,0,.15.05l.21-.23c.06-.06.13-.1.19-.15.13.19.27.33.49.07s.45-.23.66.06c0,.08.18.1.27.15l.68-.32.55.7c.24-.45.46-.82.64-1.22s.12-.54.2-.8a.72.72,0,0,1,.23-.42c.42-.23.41-.62.41-1s0-1-.06-1.49c-.11-1.48-.26-3-.3-4.46,0-2-.2-4-.3-6-.07-1.27-.18-2.55-.17-3.82,0-3.37.07-6.74.14-10.11,0-1.61.08-3.21.19-4.81.13-2.15.35-4.3.48-6.45A1.81,1.81,0,0,1,95,98.16a13.17,13.17,0,0,0,1.2-.57c1.79-.87,3.62-1.65,5.4-2.54a23.8,23.8,0,0,1,3.95-1.68c2.55-.73,5.06-1.56,7.59-2.34,1.11-.34,2.22-.68,3.34-1a1.23,1.23,0,0,1,1.19.1c.06.23.17.55.23.87.4,2.11.85,4.22,1.42,6.3a16.3,16.3,0,0,1,.36,2,80.75,80.75,0,0,0,1.92,9.25c.65,2.51,1.38,5,2,7.53.53,2.2,1.2,4.36,1.9,6.52a27.49,27.49,0,0,1,1.18,4.47c.09.66.27,1.3.42,2,.09.39.24.46.74.42.11,0,.25-.12.31-.08a1,1,0,0,0,1.23-.18Zm-15.91-96a.62.62,0,0,0,.55-.53c0-.34.08-.69.12-1a3.69,3.69,0,0,0-.32-.2,30.19,30.19,0,0,0-5.5-1.55.62.62,0,0,1-.51-.35l0,0a13.4,13.4,0,0,1,1.81.14c1.24.29,2.45.67,3.68,1a7.76,7.76,0,0,0,1,.19c.29,0,.46-.17.44-.54,0-.16,0-.33-.06-.51l.43-.23c.29-.13.35-.43,0-.64a1.9,1.9,0,0,0-.43-.26c-1.53-.47-3-1-4.6-1.38-.68-.2-1.41-.28-2.1-.44a24.54,24.54,0,0,0-4.59-.66c-2.87-.13-5.75-.19-8.61-.46-3.66-.35-7.29.07-10.93.18l-.33.05c-1.79.32-3.59.6-5.38,1a49.77,49.77,0,0,0-8.11,2.34Q67.84,30,65,31.15a60.19,60.19,0,0,0-6.4,3.14A62.92,62.92,0,0,0,48.4,41.92a1.54,1.54,0,0,0-.43.49,4.26,4.26,0,0,1-1.23,1.34c-.53.47-1.11.91-1.64,1.39-.36.34-.66.74-1,1.11s-.07.84,0,1.25.4.27.63.35a3.81,3.81,0,0,1,.88.44c.26.18.68,0,.85.33-.08.3-.4.62.1.83.09,0,.21.15.21.23,0,.61.53.91.9,1.33L49,50.38l0,0c-.26.59-.5,1.2-.78,1.78a.61.61,0,0,0,.15.74c.13.14,0,.45.32.5a3.16,3.16,0,0,0,1.73-.87c1.49-1.23,2.93-2.52,4.47-3.69q3.69-2.81,7.48-5.47c1.81-1.27,3.67-2.45,5.52-3.67.6-.39,1.2-.79,1.82-1.14A15.31,15.31,0,0,1,74,37.1c.06,0,.16.12.27.21a7.54,7.54,0,0,1-.14.78c-.31,1.18-.65,2.34-.94,3.52-.55,2.26-1.07,4.52-1.6,6.78a7.23,7.23,0,0,0-.32,2.78,3.35,3.35,0,0,1-.11,1c-.26,1.58-.54,3.16-.79,4.74-.28,1.8-.63,3.59-.79,5.41-.26,3-.6,6-.7,9.08,0,.5-.06,1-.11,1.49-.18,2-.37,4.07-.55,6.11,0,.22,0,.44-.05.66-.11,2.82-.21,5.63-.33,8.45-.06,1.26-.19,2.53-.21,3.8,0,2.81,0,5.63-.06,8.45,0,3.1,0,6.19-.08,9.29a16.47,16.47,0,0,0,0,3.14,1.21,1.21,0,0,1,0,.5,8.71,8.71,0,0,0-.18,2,10,10,0,0,1-.25,2,37,37,0,0,0-.76,4.41,7.82,7.82,0,0,1-.71,2.55c-.66,1.39-1.28,2.82-2,4.18a14,14,0,0,1-5.29,5.59,10,10,0,0,1-6.2,1.38,8.37,8.37,0,0,1-4.46-1.63c-.82-.65-1.67-1.27-2.49-1.93A3.08,3.08,0,0,1,44,130a8.06,8.06,0,0,0-.41-1.26,15.85,15.85,0,0,1-.81-3.38,11,11,0,0,0-.16-1.15,14.64,14.64,0,0,1-.1-6.25c.2-1.15.35-2.3.51-3.44a.91.91,0,0,0-.24-.93,3.6,3.6,0,0,0-1.58,0l-.87.79,0,0c0-.22,0-.45,0-.66a.9.9,0,0,0-.17-.44.31.31,0,0,0-.45,0,.25.25,0,0,1-.25,0,1,1,0,0,0-.78-.52c-.37,0-.71-.32-1.1-.13-.66-.57-1.56-.45-2.27-.79a1.15,1.15,0,0,0-.64.93c-.38,1.55-.76,3.1-1,4.69a38.14,38.14,0,0,0-.4,7.08c0,.66.14,1.32.19,2a27.59,27.59,0,0,0,1.25,7A11.74,11.74,0,0,0,36,136.18c.43.64.92,1.25,1.38,1.86l0,0c-.11.11-.27.21-.31.34a.64.64,0,0,0,.08.47,5.46,5.46,0,0,0,.92.94,18,18,0,0,0,7,3.29,9.56,9.56,0,0,1,1,.3,28.53,28.53,0,0,0,4.48,1.13,18.66,18.66,0,0,0,6.75-.31,10.49,10.49,0,0,0,3.23-1.26,10.83,10.83,0,0,1,3.09-1.56,1.85,1.85,0,0,0,.44-.23,22.38,22.38,0,0,0,6.63-5.45,16.63,16.63,0,0,0,2-3,20,20,0,0,0,2-6.12c.37-2.4.68-4.82,1-7.23s.51-5,.58-7.44c.07-2.87.1-5.75.31-8.62.06-.88.06-1.77.11-2.65.15-3,.58-6,.62-9.09,0-1.28.25-2.54.27-3.8,0-1.77.11-3.54.27-5.3.36-4.08.51-8.17,1-12.23.28-2.08.49-4.17.76-6.26.32-2.46.67-4.92,1-7.38.13-.93.21-1.87.4-2.79.38-1.89.78-3.78,1.24-5.66s.92-4,1.51-5.94c.24-.8.37-1.62.55-2.43a6.07,6.07,0,0,1,.21-1c.5-1.29,1-2.56,1.56-3.84a1.41,1.41,0,0,1,.26-.42.81.81,0,0,1,.41-.25,21.23,21.23,0,0,1,2.62-.39c1.93-.09,3.85-.29,5.8-.24,1.38,0,2.75.17,4.13.19a54.1,54.1,0,0,1,6.6.7c1.31.18,2.61.43,3.93.6a22.2,22.2,0,0,0,2.31.13,1.77,1.77,0,0,0,.65-.1c.15-.06.21-.2.12-.4a1,1,0,0,1,0-.38c.35-.2.63.37.94,0-.06-.42-.67-.44-.63-.91l0,0h1.09l0-.7ZM62.27,248l0,0c.05.16.18.35.14.47a1.39,1.39,0,0,0,.55,1.6c.66.59,1.35,1.15,2,1.71a17.2,17.2,0,0,0,4.57,2.63A28.34,28.34,0,0,0,75.78,256a20.27,20.27,0,0,0,9.35-.55,8.08,8.08,0,0,1,1.28-.35,11.94,11.94,0,0,0,4.21-1.84,14.53,14.53,0,0,0,3.26-2.54,15.87,15.87,0,0,0,2.87-3.83A42.55,42.55,0,0,0,99,241.49a39,39,0,0,0,1.77-7.91,80.46,80.46,0,0,0,.74-8.92,53.48,53.48,0,0,0-.88-11.71A25.06,25.06,0,0,0,99.19,208a33.28,33.28,0,0,0-2.34-4.37,10.13,10.13,0,0,0-2.26-2.62c-.3-.24-.58-.49-.85-.73.06-.16.07-.29.14-.36a16.63,16.63,0,0,0,2.94-4.39c.51-1,.85-2.16,1.31-3.22a23,23,0,0,0,1.62-8.09,38.94,38.94,0,0,0-.19-6.29,99.3,99.3,0,0,0-1.73-11,31.75,31.75,0,0,0-1.13-4,30.15,30.15,0,0,0-2.14-4.48,22.58,22.58,0,0,0-2.85-3.87c-.78-.84-1.75-1.51-2.61-2.3a9.75,9.75,0,0,0-5.39-2.32s-.09,0-.14.08,0,.11.05.12l1.65.76a1.62,1.62,0,0,1,.91.67l0,0a2.32,2.32,0,0,1-1.56-.45,9.09,9.09,0,0,0-2.35-.76,21.84,21.84,0,0,0-2.79-.42,27.3,27.3,0,0,0-11.26,1.32A52.51,52.51,0,0,0,56,157.52c-3.15,2.15-6.19,4.45-9.28,6.69a3.6,3.6,0,0,0-1.19,1.14,3.76,3.76,0,0,0,.77,1.45c.65,1,1.31,1.91,1.93,2.89.3.46.48,1,.79,1.45.74,1.09,1.54,2.15,2.31,3.23,1,1.49,2.12,3,3.13,4.49.79,1.19,1.51,2.44,2.25,3.66.23.38.47.75.69,1.13,1,1.84,2,3.67,3,5.52.6,1.11,1.21,2.23,1.73,3.39A70.09,70.09,0,0,1,65,199.45a20.73,20.73,0,0,1,1.39,5.26c.09,1.27.52,2.48.56,3.75,0,.83.08,1.65.15,2.48s.22,1.74.22,2.62c0,1.82.09,3.64,0,5.46a74.06,74.06,0,0,1-.49,8.43c-.24,1.63-.58,3.25-.88,4.88a39,39,0,0,1-1.7,5.71,60.55,60.55,0,0,1-2.8,7.08,5.38,5.38,0,0,0-.55,2.66ZM124,162.37a1.22,1.22,0,0,0,0,1.56l0,0c0,.61.09,1.21.17,1.81a48.34,48.34,0,0,1,.55,5c0,.44.09.88.14,1.32.07.65.16,1.31.21,2,.14,2,.26,4,.39,6,.07,1.22.14,2.43.19,3.65.06,1,.07,2.1.14,3.15,0,.82.19,1.64.24,2.47q.19,3.22.35,6.45c0,.94,0,1.89.07,2.82.25,2.15.18,4.31.26,6.46.07,1.83.17,3.65.11,5.47-.08,2.49-.09,5,.06,7.46,0,.61,0,1.22,0,1.82a39,39,0,0,0,0,4.46,20.69,20.69,0,0,1,0,2.49c0,.89-.08,1.77-.1,2.65,0,1.83,0,3.65-.06,5.47,0,1.39,0,2.77-.15,4.15-.21,2.2-.18,4.41-.52,6.6-.19,1.3-.16,2.64-.26,4-.15,2-.29,4.08-.48,6.11-.26,2.64-.56,5.27-.86,7.91-.12,1-.33,2.07-.48,3.11a1.42,1.42,0,0,0,.19,1.26l1,.06c.3-.33.5-.59.74-.81a.38.38,0,0,1,.56.14c.09.36.16.73.26,1.23l.36-.42.33-.34v0c0,.06,0,.11,0,.16,0,.66,0,.66.74.71.05,0,.13,0,.15,0,.35.45.59.32.8-.13a.37.37,0,0,1,.53-.21,7.2,7.2,0,0,0,.07.8.32.32,0,0,0,.2.22.39.39,0,0,0,.3-.07c.18-.2.33-.44.49-.65s.18-.18.38-.38c0,.58-.06,1-.06,1.42,0,0,.2.15.26.12a.82.82,0,0,0,.37-.29,16.5,16.5,0,0,1,1.79-2.3v0c0,.27-.15.54.12.76a1,1,0,0,0,.81-.71,12.74,12.74,0,0,0,.57-3.25q0-3.15.25-6.29c.15-2.15.21-4.3.38-6.45.14-1.65.24-3.31.31-5,.14-3.42.25-6.85.35-10.28.07-2.65.1-5.31.16-8a17,17,0,0,1,.1-2.15c.25-1.76.26-3.53.34-5.29.09-2.1.11-4.2.08-6.3a24.92,24.92,0,0,0-.13-4.14,6.54,6.54,0,0,1,0-1.65.46.46,0,0,1,.43-.43c.44,0,.88-.06,1.33-.08a10.56,10.56,0,0,1,6.81,2.16,6.32,6.32,0,0,1,2.82,3.95,4.43,4.43,0,0,0,.17.47,18.15,18.15,0,0,1,.92,4c.2,2.31.65,4.59.9,6.9.15,1.37.43,2.73.52,4.11.1,1.6.46,3.16.7,4.74.22,1.41.51,2.82.84,4.22a25.92,25.92,0,0,0,3.34,8.59,26.91,26.91,0,0,0,4.41,5.35,23.22,23.22,0,0,0,6.54,4.14,33.68,33.68,0,0,0,9.62,2.38,15.65,15.65,0,0,0,2.65.07,44.47,44.47,0,0,0,6.89-1c.32-.08.65-.14,1-.21A15.36,15.36,0,0,0,192,256a1,1,0,0,1,.16-.06,15.18,15.18,0,0,0,5.19-3.77,22,22,0,0,0,4.13-5.58c.12-.25.29-.47.43-.71a24.34,24.34,0,0,0,2.51-5.58,1.06,1.06,0,0,0-.06-.95c-.22-.14-.41.06-.61,0a3.64,3.64,0,0,1-.79-.19.92.92,0,0,0-.63.08c-.09,0-.28.05-.3,0-.22-.46-.79-.38-1.07-.68a6.29,6.29,0,0,0-2.25-1.27c-.42-.18-.47-.56-.76-.79-1.38.27-1.42.3-1.95,1.46a10,10,0,0,1-.55,1.2,26.9,26.9,0,0,1-4.39,6,15.32,15.32,0,0,1-3.81,2.6c-1.93.93-4.05,1.07-6.09,1.56a10.7,10.7,0,0,1-1.8.27,12.86,12.86,0,0,1-2.15,0c-.76-.09-1.51-.32-2.27-.45a27.84,27.84,0,0,1-5.33-1.79,4.36,4.36,0,0,1-.72-.42,15.76,15.76,0,0,1-4.75-4.8,29,29,0,0,1-1.68-3,23,23,0,0,1-2.19-7.44c-.23-2.14-.43-4.28-.62-6.42-.12-1.27-.26-2.53-.29-3.8a46.6,46.6,0,0,0-.48-5.78,29.58,29.58,0,0,0-2-7.84,15.78,15.78,0,0,0-3.18-5c-.32-.31-.63-.62-1-.9a4.9,4.9,0,0,1-1.17-1.19,1.9,1.9,0,0,1,.31-.37,19.53,19.53,0,0,0,4.14-4,10.85,10.85,0,0,0,1.76-3,24.46,24.46,0,0,0,1.55-7.76c0-1.43,0-2.87,0-4.31,0-2,0-4,0-6,0-1.49,0-3-.17-4.47-.13-1.26-.24-2.53-.37-3.79-.32-3-.65-6.05-1.15-9.05-.37-2.23-.72-4.47-1.23-6.68a60,60,0,0,0-1.88-6.86,14.62,14.62,0,0,0-3.53-5.72,12.55,12.55,0,0,0-3.36-2.39,11.35,11.35,0,0,0-3.59-1.2,15.33,15.33,0,0,0-6.7.84,18.52,18.52,0,0,0-5,2.92c-1.92,1.41-3.9,2.71-5.87,4.05-1.6,1.08-3.21,2.14-4.74,3.32a1.29,1.29,0,0,0-.61,1.41c.11.49.21,1,.35,1.45.08.25.65.33.21.74-.05.05,0,.22,0,.32a30.36,30.36,0,0,1,.86,4.72c.27,2.14.67,4.27,1,6.4,0,.28.3.28.41.43s.06.41.07.63Zm49.49,64.91c-.25.05-.44.1-.63.12s-.66,0-1,.07a.32.32,0,0,0-.2.21.37.37,0,0,0,.11.28,1.87,1.87,0,0,0,1.58.31,18.86,18.86,0,0,0,4.15-1.11,21.69,21.69,0,0,0,5.37-2.92,36.73,36.73,0,0,0,4.28-3.9A55.12,55.12,0,0,0,191.4,215a30.59,30.59,0,0,0,3.85-7.5c.66-1.88,1.21-3.78,1.69-5.72.59-2.35,1.14-4.72,1.65-7.09.72-3.42.88-6.91,1.43-10.35a4.89,4.89,0,0,0,0-.66c.08-2.43.19-4.86.23-7.29,0-1.93.11-3.87-.05-5.8-.12-1.54-.2-3.09-.36-4.62-.12-1.21-.37-2.41-.48-3.62a39,39,0,0,1-.25-4.46c0-1,0-2-.08-3-.1-2.05-.2-4.09-.32-6.13-.06-1.16-.22-2.31-.23-3.46,0-2.27-.2-4.54-.44-6.78-.28-2.64-.52-5.28-.86-7.91a65.68,65.68,0,0,0-2.09-10.05,28,28,0,0,0-3.59-8c-.5-.74-1.16-1.33-1.71-2a14.21,14.21,0,0,0-4.88-3.88,10.58,10.58,0,0,0-5.3-1c-.88,0-1.77.07-2.64.17a20.28,20.28,0,0,0-3.11.46,35.59,35.59,0,0,0-4.73,1.5c-1.27.55-2.55,1.07-3.85,1.54a17.3,17.3,0,0,0-3.32,1.83l-.68.46c-.22.16-.57-.09-.79.34.05.28.08.66.16,1,.54,2.38,1,4.77,1.3,7.18.29,2.08.57,4.17.79,6.25.31,2.81.56,5.62.82,8.43.1,1,.15,2.09.27,3.13.41,3.63.82,7.25,1.32,10.86s.84,7.25,1.21,10.87c.22,2.09.3,4.2.57,6.28s.33,4.18.53,6.27.39,4.19.56,6.28c.16,1.87.32,3.74.42,5.62.11,2.26.09,4.53.32,6.79.05.44,0,.88.05,1.32,0,2.11.07,4.21.12,6.31,0,.82.06,1.65.08,2.48,0,1.44.06,2.87.09,4.31,0,.44,0,.88,0,1.32,0,1.44-.06,2.88-.08,4.31,0,.55,0,1.1,0,1.65a36.49,36.49,0,0,1,0,5.63c0,.61-.09,1.21-.16,1.82a4.27,4.27,0,0,1-.43,2.24c-.08.11,0,.31,0,.47,0,.39.08.77.12,1.15.06.53.14.6.92.7.08.24.19.49.26.75,0,.09,0,.2,0,.3a.55.55,0,0,0,.07.26c.67,0,1,.6,1.63.73a6.09,6.09,0,0,1,.94.31C172.67,227.16,173.1,226.92,173.49,227.28ZM31.68,98.4c.07.34-.12.75.29,1.08.24,0,.5-.13.76-.17s.62-.21,1,.12c-.28.11-.54.19-.78.3s-.69.1-.74.55a1.34,1.34,0,0,0,1.21.35c.42-.12.86-.18,1.29-.27,1.41-.27,2.82-.56,4.24-.8a63.62,63.62,0,0,1,6.61-.45c.77,0,1.54-.12,2.31-.11,1.88,0,3.76.12,5.63.17.26,0,.56.09.77-.17,0-.52.35-1.08-.15-1.55,0,0,.12-.16.15-.25s0-.27,0-.27A5.29,5.29,0,0,0,53,96.6a56.27,56.27,0,0,0-7.11-.26c-2.37.16-4.75.3-7.1.6-1.7.22-3.37.6-5,.9a4.26,4.26,0,0,1-.76,0A4.63,4.63,0,0,1,35.06,97q2.76-.48,5.57-.8c1.86-.21,3.74-.32,5.62-.38a44.78,44.78,0,0,1,6.45.26,8.07,8.07,0,0,0,1.85.06l-.19-1.06c.22-.18.72,0,.77-.48a3.37,3.37,0,0,0-.9-.33c-1.49-.15-3-.3-4.46-.36a49.77,49.77,0,0,0-8.28.24c-2.14.27-4.29.47-6.42.77-1.09.16-2.16.44-3.24.7a1.07,1.07,0,0,0-.79.53.28.28,0,0,0,.1.27.78.78,0,0,0,.78,0,.83.83,0,0,1,1,0c-.23.11-.42.2-.62.28l-.61.25c-.45.21-.47.58,0,.87a2.4,2.4,0,0,0,.48.23Zm.5,4.37a19.12,19.12,0,0,0,2.29,0c1-.12,2.06-.37,3.09-.51s2-.28,3-.32c4.18-.14,8.37-.27,12.57-.13a3,3,0,0,0,1.6-.31c.06,0,.07-.17.08-.26a.15.15,0,0,0-.11-.11c-.22,0-.43,0-.65,0a.46.46,0,0,1-.48-.37c.61-.41.61-.41.82-.9-.89-.1-1.76-.27-2.64-.29-1.65,0-3.31,0-5,0-1.82.06-3.64.24-5.46.27-1.33,0-2.61.41-3.94.42-1.64.46-3.34.7-4.94,1.32-.09,0-.15.13-.24.21Zm199.19,87.55a24.89,24.89,0,0,0-5.44-2.24,57.88,57.88,0,0,0-6.78-1.55c-1.85-.32-3.69-.67-5.55-.9-1.26-.15-2.53-.2-3.8-.29a.27.27,0,0,0-.14.07.22.22,0,0,0-.09.12.18.18,0,0,0,0,.16c.2.31.7.34.76.81-.34.29-.75,0-1.11.08-.07,0-.12.13-.16.22s0,.11.07.14a3.24,3.24,0,0,0,1.7.55c2.46.35,4.93.65,7.38,1a61,61,0,0,1,6.83,1.33c1.28.35,2.54.76,3.81,1.15a3.7,3.7,0,0,0,2.41.06ZM34.28,76.59a25.24,25.24,0,0,0,3.94-.81,17.42,17.42,0,0,1,4.7-.93c1.82-.08,3.64-.22,5.46-.33q.82,0,1.65,0c1.77,0,3.53.1,5.3.13a9.52,9.52,0,0,0,1.31-.12c.25,0,.31-.26.14-.52s-.21-.25-.33-.39c.13-.18.27-.34.38-.51a.29.29,0,0,0-.13-.41,7.58,7.58,0,0,0-.81-.13,14.73,14.73,0,0,1-1.49-.06,15.53,15.53,0,0,0-3.47-.15c-2.82.12-5.64.27-8.44.63a29.79,29.79,0,0,0-5,1,.91.91,0,0,0-.51.35,1.19,1.19,0,0,1-.91.63c-.59.13-1.18.29-1.77.44Zm196.2,85.76a22.47,22.47,0,0,0-4.31-1.66c-1.58-.47-3.2-.83-4.81-1.18s-3.27-.57-4.89-.94-3.31-.13-4.93-.56a.92.92,0,0,0-.16,0,.37.37,0,0,0-.35.56,6.58,6.58,0,0,0,.38.54,2.48,2.48,0,0,1-.25.18c-.14.07-.32.08-.37.28a.4.4,0,0,0,.37.44c.66.11,1.31.21,2,.3,2.08.29,4.16.54,6.24.86,1.36.22,2.7.58,4.06.79a21.77,21.77,0,0,1,6.1,2.07,11.49,11.49,0,0,0,3.32,1.05l.2-1.05c-.28-.13-.57-.28-.86-.4l-1.23-.48C230.59,163,230.56,162.69,230.48,162.35ZM55.54,87a1.12,1.12,0,0,0-.85-.35c-1,0-2,0-3-.18a32.6,32.6,0,0,0-4.3-.22,63.47,63.47,0,0,0-8.27.32,19.58,19.58,0,0,0-2.27.39c-.37.1-.07.35-.14.54-1,.66-2.34.51-3.37,1.15l.1.52c0,.14.07.28.12.49l2.63-.55a30,30,0,0,1,5.06-.81,77.32,77.32,0,0,1,9.26.16c1.38.11,2.76.16,4.14.22a3.76,3.76,0,0,0,.65-.09c.21,0,.24-.27.05-.51a3,3,0,0,0-.28-.32C55.22,87.46,55.57,87.37,55.54,87Zm176.51,90.19c-1-.66-2.2-.83-3.14-1.5l-.19-.71c-1.13-.32-2.27-.74-3.46-1q-3.16-.63-6.38-1.05c-2.08-.28-4.17-.45-6.26-.64a18.87,18.87,0,0,0-2,0,.33.33,0,0,0-.27.48c.28.38.38.65-.16.88-.21.1-.11.46.11.5a8.33,8.33,0,0,0,1,.16l8.09.74a32.26,32.26,0,0,1,8.73,1.87c1.13.43,2.28.83,3.42,1.24a1,1,0,0,0,.33,0ZM114,158.37l-.09-.2a.4.4,0,0,0,0,.15.88.88,0,0,0,.09.2ZM58.39,68.24l.16-.13a1.5,1.5,0,0,0-.27-.34s-.17.06-.25.11,0,.12,0,.14S58.29,68.17,58.39,68.24Zm-.65,14.15A.41.41,0,0,0,57.3,82c-.06,0-.15.18-.13.21a1,1,0,0,0,.33.29S57.66,82.44,57.74,82.39Zm151.6,85.21a.16.16,0,0,0-.23-.23.31.31,0,0,0-.19.2c0,.05.12.19.17.18S209.26,167.65,209.34,167.6ZM127.71,27.78l-.12-.18-.35.29c.07.06.17.16.19.15A1.76,1.76,0,0,0,127.71,27.78ZM79.44,149.49h-.13l.11.07Zm3.15.37c-.08,0-.17-.12-.26-.11a.58.58,0,0,0-.25.12.81.81,0,0,0,.26.11C82.43,150,82.51,149.9,82.59,149.86Zm127.69,3.64.32-.32c-.09,0-.17-.12-.25-.11s-.21.08-.22.15S210.21,153.38,210.28,153.5ZM124.7,269c0-.06,0-.13,0-.16a1.94,1.94,0,0,0-.24-.15c0,.08-.12.18-.11.25s.11.16.17.23ZM131,29l.11.07,0-.1Zm-2.81-.62.06-.09-.09,0Z"/><path class="cls-1" d="M234.07,6c-.14.17-.23.36-.32.36a.41.41,0,0,1-.32-.25c0-.08.12-.28.23-.31S233.89,5.94,234.07,6Z"/><path class="cls-1" d="M234.23,30.07l-.06-.21h.25s0,.07.06.11Z"/><path class="cls-1" d="M98.55,290.87l-.11.07.08,0Z"/><path class="cls-1" d="M98.52,290.9l.06-.08,0,.05Z"/><path class="cls-1" d="M136.48,197a11.21,11.21,0,0,1-.42-2.28c-.21-2.82-.45-5.63-.67-8.44-.16-2-.28-4-.44-5.95-.11-1.43-.24-2.86-.41-4.29-.22-1.87-.5-3.73-.74-5.59-.17-1.31-.29-2.63-.46-4-.1-.82-.23-1.64-.39-2.45-.44-2.4-.67-4.82-1-7.24-.13-1.09-.32-2.18-.47-3.28-.08-.54-.14-1.09-.21-1.68l1-1c0-.21.08-.48.11-.75A1.73,1.73,0,0,1,133,149a25.38,25.38,0,0,1,5.32-3.94,9.79,9.79,0,0,1,3.12-1.07,3.8,3.8,0,0,1,3.95,1.5,5.23,5.23,0,0,1,.71,1.11,18.1,18.1,0,0,1,.88,2.32q.94,3.44,1.74,6.91c.4,1.78.61,3.59.88,5.39s.46,3.5.64,5.26.27,3.42.42,5.12c.23,2.54.27,5.08.34,7.62.06,2.1.07,4.2,0,6.3a9.94,9.94,0,0,1-2,5.69,13.77,13.77,0,0,1-7.83,5,2.36,2.36,0,0,1-.83.09,5.41,5.41,0,0,0-2.57.48A8.81,8.81,0,0,1,136.48,197Z"/><path class="cls-1" d="M130.21,225.32c-.17-1.59-.21-13.31-.05-15.26a9.78,9.78,0,0,1,.48,3.44q0,1.81,0,3.63c.06,2.59,0,5.18-.06,7.77A.39.39,0,0,1,130.21,225.32Z"/><path class="cls-1" d="M129.14,254.49s-.1-.08-.1-.12a30.24,30.24,0,0,1,.12-3.3c.22-1.53.24-3.07.41-4.61.12-1.2.11-2.42.23-3.63a25.8,25.8,0,0,1,.45-2.58c-.05,1,.26,2-.18,2.94a1.15,1.15,0,0,0,0,.49,31.16,31.16,0,0,1-.31,6.1c-.2,1.36-.25,2.75-.38,4.12C129.34,254.11,129.37,254.35,129.14,254.49Z"/><path class="cls-1" d="M124,163.93a1.3,1.3,0,0,1,.53-.62A5,5,0,0,1,125,166c-.28.12-.21-.1-.25-.19a5,5,0,0,1-.21-.62,3.7,3.7,0,0,1-.06-.48,1,1,0,0,0-.51-.79Z"/><path class="cls-1" d="M155.78,220.73c.14.74.27,1.39.38,2a1.82,1.82,0,0,1,0,.33s0,.11-.08.28C156,222.45,155.4,221.71,155.78,220.73Z"/><path class="cls-1" d="M136.73,144.75c.06-.14.07-.34.18-.41a5.74,5.74,0,0,1,2-1l0,0s0,.13,0,.16a4.36,4.36,0,0,1-2.21,1.26Z"/><path class="cls-1" d="M133.5,195.17c0-.47-.09-.93-.12-1.4a7.53,7.53,0,0,1,.06-.88,2.59,2.59,0,0,1,.17,1.2v1.08Z"/><path class="cls-1" d="M188.2,254.67c.11-.11.2-.27.34-.33.51-.2,1-.37,1.55-.55.25.27,0,.43-.17.46-.58.11-1.1.54-1.74.39Z"/><path class="cls-1" d="M129.11,255.71c-.07.65-.15,1.3-.25,2.21,0-.5,0-.75,0-1s0-.65,0-1c0-.07.15-.12.24-.19Z"/><path class="cls-1" d="M135.22,225.25c0-.26,0-.51-.05-.76,0,0,.09-.11.11-.1s.24.08.24.12c0,.26,0,.52,0,.77Z"/><path class="cls-1" d="M133.77,223c0-.38,0-.7,0-1,0-.07.12-.13.19-.2s.11.1.1.13C133.92,222.26,134.17,222.69,133.77,223Z"/><path class="cls-1" d="M133.47,147.42a.56.56,0,0,1,0-.61,1.56,1.56,0,0,1,1.18-.77l0,0a.56.56,0,0,1-.25.56l-1,.86Z"/><path class="cls-1" d="M133.9,208.79v.75h-.06l-.05-.74Z"/><path class="cls-1" d="M188.18,254.64c-.31.45-.84.31-1.29.64.06-.26.05-.39.1-.42a1.64,1.64,0,0,1,1.21-.19Z"/><path class="cls-1" d="M133.85,219.29c.1.58.15.84.17,1.11,0,.09-.09.18-.14.27s-.09-.09-.09-.14C133.8,220.22,133.82,219.91,133.85,219.29Z"/><path class="cls-1" d="M133.69,265.24a2.12,2.12,0,0,1,.16-1.43c.1.53.22,1-.2,1.4Z"/><path class="cls-1" d="M134.69,146a1.93,1.93,0,0,1,1.33-1l0,0a1.58,1.58,0,0,1-1.32,1Z"/><path class="cls-1" d="M125.28,167.46v.6h-.09l-.09-.59Z"/><path class="cls-1" d="M130.22,203.3l-.05-.28Z"/><path class="cls-1" d="M135.27,226.8c0,.15,0,.29,0,.43s-.05.08-.08.12-.1,0-.1-.07a3,3,0,0,1,0-.43S135.21,226.82,135.27,226.8Z"/><path class="cls-1" d="M130.24,226.32a2.94,2.94,0,0,1,.09.58c0,.08-.08.16-.12.25a1,1,0,0,1-.09-.28A2.77,2.77,0,0,1,130.24,226.32Z"/><path class="cls-1" d="M140.07,143.09c.23-.46.57-.35.94-.11l-1,.08Z"/><path class="cls-1" d="M125.72,170.23a1.92,1.92,0,0,1-.18-.22s0-.11,0-.13.11,0,.12.1a1,1,0,0,0,.07.28Z"/><path class="cls-1" d="M139,143.33a1.44,1.44,0,0,1,1.12-.24l0,0a1.15,1.15,0,0,1-1.12.24Z"/><path class="cls-1" d="M133.65,265.21a3.53,3.53,0,0,1,0,.46c0,.07-.08.13-.12.2,0-.09-.1-.19-.08-.26a2.12,2.12,0,0,1,.24-.37Z"/><path class="cls-1" d="M201.44,240.67c0-.2.05-.4.08-.59a.14.14,0,0,1,.12-.06c.05,0,.12,0,.13.09,0,.28,0,.52-.36.53Z"/><path class="cls-1" d="M131.27,155l-.09.09a.74.74,0,0,1,0-.14c0-.14.06-.17.13-.08S131.27,154.91,131.27,155Z"/><path class="cls-1" d="M133.21,190.94a.25.25,0,0,1,0,.14s0,.09-.07.13a.42.42,0,0,1,0-.15S133.19,191,133.21,190.94Z"/><path class="cls-1" d="M201.41,240.64l-.1.35s-.05-.08,0-.1a1.84,1.84,0,0,1,.17-.22Z"/><polygon class="cls-1" points="130.2 238.46 130.16 238.3 130.27 238.32 130.2 238.46"/><polygon class="cls-1" points="129.91 191.76 129.86 191.88 129.81 191.76 129.91 191.76"/><path class="cls-1" d="M136,145.05c.12-.39.41-.36.71-.3l0,0a.75.75,0,0,1-.72.3Z"/><path class="cls-1" d="M148.17,149.44l-.09,0c0-.14.06-.18.12-.08S148.18,149.4,148.17,149.44Z"/><polygon class="cls-1" points="123.96 162.34 124.08 162.35 124 162.37 123.96 162.34"/><polygon class="cls-1" points="125.72 170.26 125.76 170.31 125.72 170.23 125.72 170.26"/><polygon class="cls-1" points="133.43 147.43 133.36 147.41 133.47 147.42 133.43 147.43"/><polygon class="cls-1" points="150.32 197.82 150.39 197.74 150.3 197.79 150.32 197.82"/><path class="cls-1" d="M150,198.18c.18-.05.31-.15.3-.36l0,0-.31.42Z"/><path class="cls-1" d="M150,198.21l-.07,0,0,.07.06-.07Z"/><polygon class="cls-1" points="129.11 255.75 129.08 255.63 129.11 255.71 129.11 255.75"/><polygon class="cls-1" points="133.41 267.03 133.4 266.92 133.42 266.99 133.41 267.03"/><polygon class="cls-1" points="127.43 267.68 127.42 267.58 127.43 267.64 127.43 267.68"/><path class="cls-1" d="M72.19,195.69c-.19-.49-.36-.84-.47-1.2A42.45,42.45,0,0,0,69.19,188,73.59,73.59,0,0,0,63,177.26c-1-1.5-2.16-2.94-3.22-4.42-.36-.49-.71-1-1.05-1.49-.15-.23-.37-.5-.35-.73.06-.6-.35-.9-.65-1.28-.11-.13-.2-.26-.3-.4a.48.48,0,0,1,.07-.6.64.64,0,0,1,.13-.1c1.49-1,3-1.91,4.47-2.84.7-.44,1.43-.84,2.14-1.27,1.17-.71,2.32-1.48,3.53-2.14a15.28,15.28,0,0,1,4.42-1.82l2.43-.51a29.46,29.46,0,0,1,4.78-.4,5.25,5.25,0,0,1,2.38.66,17.26,17.26,0,0,1,1.75.93A11.57,11.57,0,0,1,87,164.11,18.94,18.94,0,0,1,90.49,174c.11,1.6.23,3.2.48,4.79a20.05,20.05,0,0,1-.26,6.91c-.15.76-.35,1.5-.52,2.26a8.48,8.48,0,0,1-4.5,5.83,18.92,18.92,0,0,1-5.11,1.92,14.33,14.33,0,0,1-6.25-.05c-.43-.1-.86-.17-1.29-.29S72.56,195.53,72.19,195.69Z"/><path class="cls-1" d="M92.3,224.48c-.16,2,0,4.08-.37,6.11a46,46,0,0,1-1.39,6.13,15.3,15.3,0,0,1-5.48,8.08c-.26.2-.49.44-.76.63a7,7,0,0,1-3,1.25,12.92,12.92,0,0,1-5.57-.38c-1.22-.35-2.41-.78-3.61-1.2-.5-.18-.6-.46-.45-.9a68.83,68.83,0,0,0,2.63-10.08c.24-1.36.39-2.74.58-4.1.44-3.13.56-6.28.72-9.42a71.56,71.56,0,0,0,.22-7.61,14.58,14.58,0,0,0-.35-4.61c-.3-1.8.14-1.84,1.29-2.44a10.87,10.87,0,0,1,4.48-1.06,5.53,5.53,0,0,1,2.73.54A14.2,14.2,0,0,1,88,208a6.5,6.5,0,0,1,1.44,2A32.38,32.38,0,0,1,92,219c.13,1,.14,2,.18,3C92.26,222.83,92.27,223.65,92.3,224.48Z"/><path class="cls-1" d="M69.72,214.31a46.39,46.39,0,0,1-.34,11.59c0-.87-.11-1.37-.09-1.86C69.43,220.8,69.58,217.55,69.72,214.31Z"/><path class="cls-1" d="M62.27,248c.31-.69.61-1.39.93-2.08a1.55,1.55,0,0,1,.25-.41.4.4,0,0,1,.29-.09.3.3,0,0,1,.17.24,4.4,4.4,0,0,1-.55,1.87.93.93,0,0,1-1.13.43Z"/><path class="cls-1" d="M59,184.51c-.13-.07-.31-.11-.38-.22-.51-.81-1-1.63-1.48-2.46a2.36,2.36,0,0,1-.12-.61l0,0a9.59,9.59,0,0,1,1.86,2.66,2.52,2.52,0,0,1,.13.63Z"/><path class="cls-1" d="M59.27,185.25s.13,0,.15,0a4.38,4.38,0,0,1,1.19,2.29l0,0a3.78,3.78,0,0,1-1.34-2.31Z"/><path class="cls-1" d="M66.39,196.2c.34.19.38.53.47.83,0,.08,0,.19-.08.29s-.21,0-.25-.09C66.33,196.92,66.09,196.59,66.39,196.2Z"/><path class="cls-1" d="M66.19,184.33c.68.15.77.65.74,1.23l0,0a1.37,1.37,0,0,1-.37-.23,1.78,1.78,0,0,1-.38-1Z"/><path class="cls-1" d="M61.3,188.85a1.18,1.18,0,0,1-.66-1.32l0,0c.59.25.68.75.66,1.32Z"/><path class="cls-1" d="M67.92,187.57a2.19,2.19,0,0,1,.68,1.6l0,0a2,2,0,0,1-.68-1.6Z"/><path class="cls-1" d="M59.61,176.57c-.2-.24-.41-.46-.6-.71,0-.05.05-.18.08-.27s.19.07.22.13c.1.29.17.59.26.89Z"/><path class="cls-1" d="M54.32,160l.57-.45.06.1-.63.37Z"/><path class="cls-1" d="M60.93,181.56a1.6,1.6,0,0,1-.59-1l0,0a1.1,1.1,0,0,1,.59,1Z"/><path class="cls-1" d="M73.75,157.05l.15.06c-.05,0-.09.12-.16.15s-.09,0-.14,0Z"/><polygon class="cls-1" points="78.05 202.97 78.17 202.97 78.15 203.02 78.05 202.97"/><path class="cls-1" d="M89.4,252.25s-.09,0-.12,0,0,.1,0,.11.18,0,.15-.13Z"/><path class="cls-1" d="M89.44,252.26l.25,0-.29,0Z"/><path class="cls-1" d="M88.6,205.06c-.27,0-.54.07-.71-.23l0,0,.71.22Z"/><path class="cls-1" d="M87.55,204.4c-.5,0-.5,0-.56-.34h0l.58.38Z"/><path class="cls-1" d="M65.83,190.47l-.07.1,0-.22Z"/><path class="cls-1" d="M61.58,189.59c.32.09.32.36.32.61h0a.73.73,0,0,1-.31-.64Z"/><path class="cls-1" d="M68.92,189.87l-.28-.73,0,0,.32.7Z"/><path class="cls-1" d="M61.62,189.56c-.28-.16-.3-.44-.32-.71l0,0c.37.12.31.43.31.71Z"/><path class="cls-1" d="M68,187.54c-.35-.1-.37-.36-.35-.65l0,0c.38.08.29.4.34.65Z"/><path class="cls-1" d="M62.59,186.61c.26.12.28.37.34.6h0l-.32-.64Z"/><path class="cls-1" d="M67.24,186.24c.35.11.29.42.34.68l0,0c-.3-.13-.32-.4-.34-.67Z"/><path class="cls-1" d="M62.62,186.58l-.29-.69h0l.28.73Z"/><path class="cls-1" d="M66.93,185.56c.35.11.39.37.31.68l0,0c-.36-.12-.35-.4-.31-.69Z"/><path class="cls-1" d="M62.63,184.58l.14.21-.14-.22Z"/><path class="cls-1" d="M59,184.54a.6.6,0,0,1,.3.71l0,0c-.36-.12-.32-.42-.3-.71Z"/><path class="cls-1" d="M65.87,183.69c.43.05.33.37.32.64l0,0-.34-.64Z"/><path class="cls-1" d="M86.18,151.68c.25,0,.55,0,.57.4l0,0c-.21-.11-.53-.08-.58-.41Z"/><path class="cls-1" d="M86.75,152.08l.28,0-.24-.07Z"/><path class="cls-1" d="M65.58,183l.29.74v0l-.25-.75Z"/><path class="cls-1" d="M65,181.91c.3.17.25.45.23.72l0,0-.23-.72Z"/><path class="cls-1" d="M61.31,181.91l.09.1,0-.13Z"/><path class="cls-1" d="M62,181.21c-.3-.14-.23-.42-.25-.67l0,0,.25.68Z"/><path class="cls-1" d="M63.93,180.55l-.23-.67,0,0,.23.72Z"/><path class="cls-1" d="M59.66,179.58a.78.78,0,0,1,.22.71l0,0a.84.84,0,0,1-.22-.7Z"/><path class="cls-1" d="M85.54,155.69l.55.39,0,0-.6-.37Z"/><path class="cls-1" d="M86.09,156.08l.4,0s-.08.07-.1.06l-.26-.14Z"/><polygon class="cls-1" points="61.37 156.45 61.37 156.54 61.25 156.5 61.37 156.45"/><path class="cls-1" d="M59.61,164.92a.6.6,0,0,1,.7-.27l0,0c-.12.4-.4.36-.7.26Z"/><path class="cls-1" d="M60.62,164.27l.24-.14c0,.21-.2,0-.29.1Z"/><path class="cls-1" d="M54.32,160h-.1c.06.1.1.09.1,0Z"/><path class="cls-1" d="M60.31,164.65c0-.24.14-.3.31-.38l0,0c0,.24-.07.36-.29.39Z"/><path class="cls-1" d="M59.58,164.88c0,.22-.1.35-.33.34l0,0,.33-.33Z"/><polygon class="cls-1" points="59.25 165.22 59.24 165.34 59.28 165.25 59.25 165.22"/><path class="cls-1" d="M58.24,165.93l.11-.07-.07,0Z"/><path class="cls-1" d="M58.28,165.9l-.07.07,0,0Z"/><path class="cls-1" d="M60,176.87l-.38-.3,0,0,.39.29Z"/><path class="cls-1" d="M60,176.9l.13.1-.1-.13Z"/><path class="cls-1" d="M60.63,177.86l0,0Z"/><polygon class="cls-1" points="57.61 178.23 57.53 178.17 57.57 178.25 57.61 178.23"/><polygon class="cls-1" points="60.66 177.89 60.69 177.96 60.63 177.86 60.66 177.89"/><path class="cls-1" d="M57.57,178.25l.4.32h0l-.35-.34Z"/><path class="cls-1" d="M58,178.57v.09l0-.09Z"/><polygon class="cls-1" points="59.3 179.19 59.23 179.17 59.27 179.23 59.3 179.19"/><path class="cls-1" d="M59.27,179.23l.39.35,0,0-.4-.36Z"/><polygon class="cls-1" points="63.7 179.88 63.59 179.86 63.66 179.86 63.7 179.88"/><polygon class="cls-1" points="61.31 180.18 61.23 180.15 61.27 180.21 61.31 180.18"/><path class="cls-1" d="M59.88,180.29l.42.3,0,0-.42-.31Z"/><path class="cls-1" d="M61.7,180.54l-.39-.36,0,0,.39.36Z"/><polygon class="cls-1" points="56.61 180.9 56.56 180.87 56.57 180.94 56.61 180.9"/><polygon class="cls-1" points="59.27 180.93 59.23 180.85 59.24 180.91 59.27 180.93"/><path class="cls-1" d="M64.29,180.84l-.36-.29,0,0,.43.29Z"/><path class="cls-1" d="M57,181.22l-.41-.32,0,0,.41.31Z"/><polygon class="cls-1" points="59.24 180.91 59.34 180.96 59.27 180.93 59.24 180.91"/><polygon class="cls-1" points="64.32 180.87 64.33 180.94 64.29 180.84 64.32 180.87"/><path class="cls-1" d="M61.91,181.25l.11,0-.07-.07Z"/><path class="cls-1" d="M61.35,181.88l-.42-.32,0,0,.42.31Z"/><path class="cls-1" d="M65,181.88l-.18-.1.08,0a.6.6,0,0,1,.06.11Z"/><path class="cls-1" d="M65.18,182.63a.34.34,0,0,1,.4.32l0,0-.4-.31Z"/><polygon class="cls-1" points="62.63 184.57 62.57 184.51 62.63 184.58 62.63 184.57"/><polygon class="cls-1" points="62.33 185.89 62.25 185.84 62.31 185.88 62.33 185.89"/><path class="cls-1" d="M62.93,187.21l0,.08,0-.07Z"/><path class="cls-1" d="M68.92,189.87l0,.08,0-.08Z"/><polygon class="cls-1" points="61.91 190.21 61.98 190.24 61.93 190.2 61.91 190.21"/><polygon class="cls-1" points="86.99 204.06 86.86 204.1 86.95 204.06 86.99 204.06"/><path class="cls-1" d="M87.89,204.83l-.34-.43,0,0,.33.43Z"/><path class="cls-1" d="M88.85,205.48a.31.31,0,0,1-.25-.42l0,0,.25.42Z"/><path class="cls-1" d="M88.82,205.51c.24,0,.36.07.35.31l0,0a.32.32,0,0,1-.35-.32Z"/><path class="cls-1" d="M89.45,206.2l-.25-.4,0,0c.24,0,.32.14.25.37Z"/><polygon class="cls-1" points="89.42 206.19 89.53 206.2 89.45 206.21 89.42 206.19"/><path class="cls-1" d="M95.44,245.64l.1,0-.07,0Z"/><path class="cls-1" d="M95.47,245.62l-.07.07c.1.06.12,0,0-.05Z"/><polygon class="cls-1" points="64.45 247.1 64.48 247.19 64.4 247.17 64.45 247.1"/><polygon class="cls-1" points="92.9 248.99 92.94 248.9 92.87 248.97 92.9 248.99"/><path class="cls-1" d="M92.48,249.31l.42-.32,0,0-.37.33Z"/><path class="cls-1" d="M92.5,249.3l-.09,0c.08.09.1.08.07,0Z"/><polygon class="cls-1" points="85.53 155.68 85.48 155.62 85.54 155.69 85.53 155.68"/><path class="cls-1" d="M177.68,215.38a1.87,1.87,0,0,1-.13-.42c0-.66-.06-1.32-.08-2q-.15-4.72-.49-9.44a2.93,2.93,0,0,1,0-.66,38.38,38.38,0,0,0,0-6.78c-.12-2.1-.08-4.21-.19-6.3-.16-2.93-.24-5.86-.29-8.79-.45-2.46-.21-5-.51-7.43-.24-2-.25-4.08-.38-6.13-.08-1.37-.21-2.75-.31-4.13-.13-1.87-.25-3.74-.4-5.62-.06-.82-.22-1.64-.25-2.47-.12-2.65-.49-5.28-.78-7.92-.3-2.86-.7-5.7-1.06-8.56-.18-1.48-.33-3-.57-4.44-.51-3.16-.88-6.35-1.55-9.49-.48-2.27-.87-4.56-1.3-6.84a2.11,2.11,0,0,1-.08-.65,1,1,0,0,1,.26-.57,2.37,2.37,0,0,1,.71-.4,17.72,17.72,0,0,1,3-1,35.56,35.56,0,0,1,6.42-.72c.28,0,.55.06.83.06a4.45,4.45,0,0,1,3.7,2.18,9.44,9.44,0,0,1,1.43,3c.41,1.49.91,3,1.27,4.46s.67,3,.9,4.54c.29,1.86.44,3.74.72,5.59.39,2.57.61,5.16.88,7.74.32,3,.52,5.94.77,8.92.28,3.3.55,6.6.83,9.91l.15,2.15c.12,1.82.25,3.64.36,5.46,0,.66,0,1.33,0,2a10,10,0,0,0,.09,2.32,2.9,2.9,0,0,1,0,.66c0,2.15,0,4.31,0,6.46,0,.55,0,1.11,0,1.66a2.29,2.29,0,0,1-.19,1.12,2.35,2.35,0,0,0-.09,1,46.46,46.46,0,0,1-.33,6.13,38.68,38.68,0,0,1-1.42,6.64c-.5,1.81-1.09,3.59-1.69,5.37a13.38,13.38,0,0,1-.82,1.81,52,52,0,0,1-4.37,7.23,18.24,18.24,0,0,1-3,3.13,13.13,13.13,0,0,1-1.35,1C178.25,215.23,178,215.45,177.68,215.38Z"/><path class="cls-1" d="M170.43,148.23c.25,1.63.53,3.26.74,4.89.18,1.42.3,2.85.42,4.27.29,3.13.56,6.26.83,9.39.06.66.07,1.32.11,2a17.19,17.19,0,0,0,.17,2.47,10.44,10.44,0,0,1,0,2.09,57.15,57.15,0,0,1-.64-6.19q-.27-3.21-.59-6.42c-.2-2.08-.4-4.17-.61-6.25S170.44,150.31,170.43,148.23Z"/><path class="cls-1" d="M171.51,147.74c.1.12.29.23.3.35.14,2.14.66,4.24.79,6.4.06.87.26,1.73.34,2.61.24,2.81.54,5.61.81,8.41.06.6.08,1.21.14,1.81s.13,1.31.18,2,.09,1.43.11,2.15a3.55,3.55,0,0,1-.16,1.32c0-.18-.08-.36-.1-.55-.21-2.36-.37-4.72-.63-7.07-.17-1.54-.2-3.09-.44-4.61-.27-1.7-.34-3.4-.52-5.1-.25-2.25-.69-4.47-.83-6.72,0-.33,0-.66,0-1Z"/><path class="cls-1" d="M195.1,124.81c.1.12.27.22.3.35.18.7.35,1.39.47,2.1.42,2.33.74,4.67.94,7,.13,1.59.38,3.17.52,4.76a14.07,14.07,0,0,1,0,3.8c-.12-.51-.17-.68-.19-.86-.24-2.52-.42-5.05-.73-7.56a69.16,69.16,0,0,0-1.13-7.84,13.38,13.38,0,0,1-.17-1.8Z"/><path class="cls-1" d="M192.3,145.07a4.66,4.66,0,0,1,.18.77c.31,4.94,1,9.85,1.07,14.8a.32.32,0,0,1-.06.15l-.11.12c-.29-.18-.24-.47-.26-.73-.22-3-.41-5.92-.66-8.88-.13-1.54-.25-3.07-.34-4.61A4.59,4.59,0,0,1,192.3,145.07Z"/><path class="cls-1" d="M168.51,149.41a2.09,2.09,0,0,1,.3.57c.23,1.91.48,3.83.66,5.75s.28,3.63.4,5.45a1.77,1.77,0,0,1-.15.83c0-.26-.1-.52-.13-.78-.1-1-.19-2-.28-3a11.44,11.44,0,0,0-.33-2.79c0-2-.57-4-.44-6.09Z"/><path class="cls-1" d="M168.32,123.44a12.74,12.74,0,0,1,.83,4.15c.16,2.36.72,4.68.68,7.19a2.22,2.22,0,0,1-.22-.39l-1.29-10.18C168.3,124.05,168.32,123.88,168.32,123.44Z"/><path class="cls-1" d="M195.13,124.79a1.22,1.22,0,0,1-.41-.87,47.8,47.8,0,0,0-1.79-6,1.2,1.2,0,0,1,0-.33c.19-.25.29,0,.33.1a13.6,13.6,0,0,1,.54,1.38c.3.94.57,1.88.85,2.83a6.36,6.36,0,0,1,.47,2.89Z"/><path class="cls-1" d="M171.53,147.72c-.05-.09-.15-.18-.16-.28a24.71,24.71,0,0,1-.44-3.09,2,2,0,0,0-.07-.65,11.32,11.32,0,0,1-.32-3.28l0,0a.92.92,0,0,1,.32.73,32.29,32.29,0,0,0,.41,3.28,18.16,18.16,0,0,1,.31,2.62,4.87,4.87,0,0,1,0,.66Z"/><path class="cls-1" d="M165.85,139.79c.09.06.24.12.24.19.2,2.14.69,4.25.76,6.4,0,.05,0,.1-.1.23a56.61,56.61,0,0,1-.91-6.36,4,4,0,0,1,0-.49Z"/><path class="cls-1" d="M167.38,140.91c0-1.14-.65-2.21-.37-3.39A9.54,9.54,0,0,1,167.38,140.91Z"/><path class="cls-1" d="M174.17,173.86a3.92,3.92,0,0,1,.13,2.88C174.26,175.81,174.22,174.89,174.17,173.86Z"/><path class="cls-1" d="M176.39,214.49a6.24,6.24,0,0,1-.07-2.65A6.14,6.14,0,0,1,176.39,214.49Z"/><path class="cls-1" d="M170.25,167a1.45,1.45,0,0,1,.19.45c0,.87.06,1.74.09,2.7-.13-.11-.22-.15-.22-.19,0-1,0-2,0-3Z"/><path class="cls-1" d="M166,131.36a2.51,2.51,0,0,1,.33,2.2c0-.36-.06-.73-.11-1.09S166.11,131.86,166,131.36Z"/><path class="cls-1" d="M170.07,163.8c0,.55.07,1.1.11,1.65C169.84,164.92,170.13,164.35,170.07,163.8Z"/><path class="cls-1" d="M170.84,113.46a5,5,0,0,1-1.71.86c0-.13-.11-.27-.08-.3a1.2,1.2,0,0,1,.38-.29,3.1,3.1,0,0,1,1.44-.23Z"/><path class="cls-1" d="M167.59,142.25a2.35,2.35,0,0,1,.27,1.63c-.31-.11-.23-.34-.26-.5a2,2,0,0,1,0-.49C167.55,142.68,167.57,142.46,167.59,142.25Z"/><path class="cls-1" d="M170.29,138c-.08-.07-.19-.13-.22-.22a2.06,2.06,0,0,1-.11-.65,3.55,3.55,0,0,1,.12-1.4l.18,2.3Z"/><path class="cls-1" d="M175.19,112.07a2.1,2.1,0,0,1,1.62-.51c0,.34-.27.19-.4.24a2.54,2.54,0,0,1-.47.14C175.74,112,175.54,112,175.19,112.07Z"/><path class="cls-1" d="M182.83,113.13l-1.87-.47c.85-.36,1.3.26,1.86.48Z"/><path class="cls-1" d="M170.54,140.42a4.3,4.3,0,0,1-.25-2.43l0,0a1.36,1.36,0,0,1,.24.94c0,.5,0,1,0,1.49Z"/><path class="cls-1" d="M194,142.12v1h0l0-.44v-.55Z"/><path class="cls-1" d="M168.54,149.39a3,3,0,0,1-.26-1.91c.35.29.26.65.27,1a7.79,7.79,0,0,1,0,1Z"/><path class="cls-1" d="M168.1,146.26a1.13,1.13,0,0,1-.11-1.07C168.23,145.6,168.24,145.6,168.1,146.26Z"/><path class="cls-1" d="M167.13,148v.88H167l-.09-.84Z"/><path class="cls-1" d="M165.88,139.76a2.52,2.52,0,0,1-.24-1.74,2.77,2.77,0,0,1,.21,1.77Z"/><path class="cls-1" d="M167.45,151.23c0,.25,0,.51,0,.77,0,0-.06.09-.09.13s-.08-.07-.08-.1c0-.27,0-.54,0-.8Z"/><path class="cls-1" d="M166.66,135.14c.27.24.19.49.2.71s-.09.16-.14.23a1.57,1.57,0,0,1-.1-.28C166.62,135.6,166.64,135.4,166.66,135.14Z"/><path class="cls-1" d="M165.26,135.67c.39.45.23.76.28,1.22C165.18,136.44,165.33,136.13,165.26,135.67Z"/><path class="cls-1" d="M193.34,136.54v.6h-.06l0-.59Z"/><path class="cls-1" d="M193.69,139.54v.73h-.12l0-.72Z"/><path class="cls-1" d="M167.72,129s.06,0,.06,0,0,.2,0,.3l-.06,0C167.7,129.17,167.71,129.07,167.72,129Z"/><path class="cls-1" d="M164.71,131.81c.07.06.12.09.12.12a3.07,3.07,0,0,1-.07.42s-.08-.06-.08-.09S164.7,132,164.71,131.81Z"/><path class="cls-1" d="M191.63,132.69c0-.1,0-.2-.06-.3a.44.44,0,0,1,.05-.15s.08,0,.08.07a1.67,1.67,0,0,1,0,.32S191.66,132.67,191.63,132.69Z"/><path class="cls-1" d="M165.15,133.83l-.06.15s-.07,0-.08-.08a1.74,1.74,0,0,1,0-.32s.06,0,.09-.06Z"/><path class="cls-1" d="M176.32,108.31a1,1,0,0,1,.29-.07.82.82,0,0,1,.25.12,1,1,0,0,1-.28.08A.71.71,0,0,1,176.32,108.31Z"/><path class="cls-1" d="M192.35,138h-.08l.08-.12Z"/><path class="cls-1" d="M173,175.54c0,.05.05.1,0,.12s-.07,0-.1.05Z"/><path class="cls-1" d="M177.89,108.37s0-.09,0-.09h.14s0,.07,0,.07Z"/><path class="cls-1" d="M170.87,113.5l.36-.26a.19.19,0,0,1,.15,0c.11.1.08.16-.09.17l-.45,0Z"/><path class="cls-1" d="M167.81,155.32v.28h-.11v-.28Z"/><path class="cls-1" d="M187.46,118.24s0,0,0,0Z"/><path class="cls-1" d="M187.45,118.2a.31.31,0,0,0,.05-.12s-.05,0-.07-.07l0,.23Z"/><polygon class="cls-1" points="192.6 116.54 192.65 116.42 192.68 116.55 192.6 116.54"/><path class="cls-1" d="M190.62,115.71s.08,0,.08.05a.79.79,0,0,1,0,.13s-.08,0-.08,0S190.61,115.76,190.62,115.71Z"/><polygon class="cls-1" points="169.11 112.97 169.24 112.94 169.22 113.03 169.11 112.97"/><path class="cls-1" d="M168.79,110.79l-.12.09s0,0,.05,0a1,1,0,0,0,.1-.11Z"/><path class="cls-1" d="M168.82,110.77l.21,0,0-.11-.21.09Z"/><path class="cls-1" d="M197.68,144l0,.12-.13-.14.09-.1Z"/><polygon class="cls-1" points="170.03 145.42 170.01 145.31 170.09 145.33 170.03 145.42"/><path class="cls-1" d="M170.72,172.11s.06.1.05.15-.05.08-.08.12-.06-.1-.06-.14S170.69,172.15,170.72,172.11Z"/><polygon class="cls-1" points="170.28 166.95 170.2 166.92 170.25 166.95 170.28 166.95"/><polygon class="cls-1" points="182.82 113.14 182.89 113.19 182.83 113.13 182.82 113.14"/><path class="cls-1" d="M58,44.11A14.37,14.37,0,0,1,55.61,46c-.07,0-.2,0-.31,0l0,0A7.54,7.54,0,0,1,57,44.5a1.2,1.2,0,0,1,1-.35Z"/><polygon class="cls-1" points="106.57 32.98 106.6 32.91 106.72 32.95 106.57 32.98"/><polygon class="cls-1" points="69.08 87.13 69.07 87 69.13 87.03 69.08 87.13"/><path class="cls-1" d="M40.3,114.41a3.55,3.55,0,0,1,0,.46c0,.07-.08.14-.12.22,0-.08-.1-.18-.08-.24a1.59,1.59,0,0,1,.21-.41Z"/><path class="cls-1" d="M108.51,29.07h-.29c.12-.25.18,0,.26,0Z"/><polygon class="cls-1" points="40.11 116.24 40.11 116.34 39.98 116.29 40.11 116.24"/><path class="cls-1" d="M114.21,32.71h0Z"/><path class="cls-1" d="M39.17,114.57a.34.34,0,0,1,0-.14s.05,0,.09,0a.68.68,0,0,1,0,.14S39.2,114.55,39.17,114.57Z"/><path class="cls-1" d="M113.2,33.39l-.36-.09.32.11Z"/><path class="cls-1" d="M39.32,139.8l.71.25v0l-.67-.31Z"/><path class="cls-1" d="M49.26,50c0,.23-.1.33-.31.34l0,0,.32-.33Z"/><path class="cls-1" d="M49.3,50.05l.36-.31h0l-.41.28Z"/><path class="cls-1" d="M49.66,49.74l.09,0-.08,0Z"/><path class="cls-1" d="M40,140.05l0,.1c.11-.07.1-.1,0-.08Z"/><path class="cls-1" d="M50.74,49.08l-.1,0,.07.07Z"/><path class="cls-1" d="M50.71,49.12l0-.09.07,0Z"/><path class="cls-1" d="M39.36,139.76l-.29-.38,0,0,.27.45Z"/><polygon class="cls-1" points="53.98 47.41 53.94 47.49 54.02 47.45 53.98 47.41"/><path class="cls-1" d="M39.07,139.38l0-.08c-.08.08-.07.1,0,0Z"/><path class="cls-1" d="M54.31,47.07l-.33.34,0,0c0-.22.1-.34.33-.34Z"/><path class="cls-1" d="M54.35,47.11c0-.22.07-.35.31-.35l0,0a.35.35,0,0,1-.31.34Z"/><path class="cls-1" d="M37.71,138.44l0,0Z"/><path class="cls-1" d="M37.74,138.41l-.37-.39,0,0,.37.4Z"/><path class="cls-1" d="M55,46.41l-.36.32,0,0a.34.34,0,0,1,.35-.31Z"/><path class="cls-1" d="M55,46.45a.34.34,0,0,1,.32-.38l0,0a.42.42,0,0,1-.32.37Z"/><polygon class="cls-1" points="57.99 44.15 58.01 44.06 57.99 44.11 57.99 44.15"/><polygon class="cls-1" points="110.61 32.56 110.65 32.65 110.56 32.64 110.61 32.56"/><path class="cls-1" d="M100.58,50.48a2.53,2.53,0,0,1,.5-.1l8.9.76a3.39,3.39,0,0,1,1.09,2.2c.27,1.12.44,2.27.62,3.41a5,5,0,0,1,.06,1.33,18.43,18.43,0,0,0,.16,3,4.13,4.13,0,0,0,.18,1,72.64,72.64,0,0,1,1.71,8.27c.51,2.77,1,5.53,1.55,8.3.15.81.31,1.63.45,2.44a.58.58,0,0,1-.45.75,10.55,10.55,0,0,1-1.45.35,28.92,28.92,0,0,0-5,1.29c-2.39.7-4.74,1.51-7.08,2.33-1.93.67-3.83,1.43-5.74,2.15l-.85.29a3,3,0,0,1-.15-.66c.06-1.05.17-2.1.22-3.15.11-2.21.46-4.39.73-6.58s.55-4.61,1-6.89c.5-2.83.92-5.68,1.4-8.51q.94-5.55,1.93-11.1C100.4,51,100.5,50.79,100.58,50.48Z"/><path class="cls-1" d="M102,92.07a3.68,3.68,0,0,1-.5.38c-2.08.9-4.06,2-6.09,3a3.58,3.58,0,0,1-.63.21.17.17,0,0,1-.13-.07c0-.09,0-.23,0-.27a2.42,2.42,0,0,1,.54-.36c1.89-.91,3.77-1.82,5.66-2.71A1.13,1.13,0,0,1,102,92.07Z"/><path class="cls-1" d="M102.58,88.34a6.15,6.15,0,0,1-.62.39c-1.46.6-2.94,1.18-4.41,1.78-.76.31-1.5.66-2.25,1-.08,0-.2,0-.3-.06s0-.3.13-.37L100,89c.56-.23,1.12-.45,1.69-.63A4.3,4.3,0,0,1,102.58,88.34Z"/><path class="cls-1" d="M117.8,77.57c-.11-.12-.28-.22-.32-.35a14.36,14.36,0,0,1-.74-4.55l0,0a1.66,1.66,0,0,1,.25.42c.27,1.16.55,2.33.79,3.49a6.38,6.38,0,0,1,0,1Z"/><path class="cls-1" d="M116.74,72.67a5.39,5.39,0,0,1-.54-2.93,6.68,6.68,0,0,1,.5,3Z"/><path class="cls-1" d="M117.77,77.59c.09.13.23.25.26.39.12.58.2,1.17.3,1.76-.24.23-.22-.07-.24-.14a2.82,2.82,0,0,1-.29-2Z"/><path class="cls-1" d="M92.7,134.8a.76.76,0,0,1,.35.82.17.17,0,0,1-.11.11.15.15,0,0,1-.13-.06A.7.7,0,0,1,92.7,134.8Z"/><path class="cls-1" d="M100.31,42.94H100s0-.05,0-.08h.3S100.3,42.91,100.31,42.94Z"/><path class="cls-1" d="M109.06,45.52s0,.1,0,.1a.27.27,0,0,1-.15,0c-.18-.07-.17-.13,0-.15A.4.4,0,0,1,109.06,45.52Z"/><path class="cls-1" d="M101.65,89.64a.37.37,0,0,1,.15,0,.36.36,0,0,1,.07.1,1.63,1.63,0,0,1-.3.07s-.06-.09,0-.1A.74.74,0,0,1,101.65,89.64Z"/><path class="cls-1" d="M119.63,70.24s-.1,0-.1,0,0-.14,0-.15S119.67,70.08,119.63,70.24Z"/><path class="cls-1" d="M115.92,67.7A2.61,2.61,0,0,1,116,68s0,.07-.08.1a1.19,1.19,0,0,1-.05-.26S115.9,67.74,115.92,67.7Z"/><path class="cls-1" d="M117.38,46.41a1.16,1.16,0,0,1,.24.14s0,.08,0,.12l-.18-.3Z"/><polygon class="cls-1" points="129.54 128.33 129.51 128.24 129.59 128.25 129.54 128.33"/><path class="cls-1" d="M156.12,82.28c-.47-2.31-1-4.6-1.39-6.92-.45-2.89-1-5.75-1.48-8.64-.3-2-.76-3.9-1.14-5.84-.23-1.19-.46-2.39-.67-3.58a2.74,2.74,0,0,1,0-.64.15.15,0,0,1,.1-.09s.14,0,.15,0a2.75,2.75,0,0,1,.21.61c.58,3,1.16,6,1.72,9,.41,2.17.8,4.34,1.19,6.51.36,2,.74,3.91,1.06,5.86.17,1,.24,2.08.35,3.13a4,4,0,0,1,0,.6Z"/><path class="cls-1" d="M149.78,46.1c.13.36.23.65.33.94s.13.43.17.64l.9,5.57c.08.48.21,1,.31,1.45a1.53,1.53,0,0,1,0,1c-.35,0-.38-.31-.43-.54-.24-1.19-.48-2.38-.68-3.58-.25-1.52-.46-3.06-.68-4.59A1.26,1.26,0,0,1,149.78,46.1Z"/><path class="cls-1" d="M157.25,70c.07.07.21.13.22.21.37,1.81.76,3.62,1.07,5.44a12.63,12.63,0,0,1,.07,1.95l0,0c-.1-.13-.25-.24-.28-.38-.36-1.92-.73-3.84-1.05-5.76a10.17,10.17,0,0,1,0-1.46Z"/><path class="cls-1" d="M152.55,43.5c.1.13.26.24.29.39.27,1.22.52,2.45.76,3.68.09.43.17.86.23,1.29s0,.65.09,1.15a20.79,20.79,0,0,1-1.34-6.55Z"/><path class="cls-1" d="M157.28,70c-.08-.07-.21-.12-.23-.2A4.23,4.23,0,0,1,157,69c0-.19-.06-.42.19-.58a3.08,3.08,0,0,1,.09,1.59Z"/><path class="cls-1" d="M154.54,53.36l-.12.18a.35.35,0,0,1,0-.13.93.93,0,0,1,0-.29C154.45,53,154.55,53.13,154.54,53.36Z"/><path class="cls-1" d="M156.43,83.22a.69.69,0,0,1,.09.25,1,1,0,0,1-.07.29.84.84,0,0,1-.09-.23A1.25,1.25,0,0,1,156.43,83.22Z"/><path class="cls-1" d="M156.76,66.92a.74.74,0,0,1-.1-.27.8.8,0,0,1,.08-.28c0,.08.1.16.1.25A1,1,0,0,1,156.76,66.92Z"/><path class="cls-1" d="M191.38,79.38a3,3,0,0,1,0,.55c0,.07-.14.12-.22.17s-.08-.18-.05-.24A2.77,2.77,0,0,1,191.38,79.38Z"/><path class="cls-1" d="M158.61,77.6a.67.67,0,0,1,.28.83s-.06.08-.1.1a.11.11,0,0,1-.1,0,1,1,0,0,1-.05-.92Z"/><path class="cls-1" d="M186.4,88.82c-.06.08-.1.17-.17.25a.3.3,0,0,1-.14.06.93.93,0,0,1-.13,0l.2-.12.27-.12Z"/><path class="cls-1" d="M149.59,44.63l-.18.1a1.18,1.18,0,0,1,0-.26s.06-.06.1-.09A2.6,2.6,0,0,0,149.59,44.63Z"/><path class="cls-1" d="M152.58,43.46c-.05-.14-.11-.27-.16-.41a.19.19,0,0,1,0-.15c.11-.06.15,0,.14.15s0,.3,0,.45Z"/><path class="cls-1" d="M167.51,94.86a1.84,1.84,0,0,1-.17.22s-.07,0-.11,0l.32-.15Z"/><path class="cls-1" d="M167.55,94.9l.2-.2c0,.23-.18.08-.24.16Z"/><path class="cls-1" d="M186.43,88.85a2.49,2.49,0,0,1,.28-.15s.06,0,.1.08l-.41,0Z"/><path class="cls-1" d="M193.11,78.24l-.06.31c-.26-.19,0-.2.09-.28Z"/><path class="cls-1" d="M194.07,78.17v0Z"/><path class="cls-1" d="M159.16,80l-.09.1a.65.65,0,0,1,0-.13s.05-.07.08-.11Z"/><polygon class="cls-1" points="195.4 79.82 195.41 79.94 195.38 79.86 195.4 79.82"/><polygon class="cls-1" points="193.45 82.91 193.54 82.88 193.47 82.89 193.45 82.91"/><path class="cls-1" d="M195.13,78.6l-.07.13c-.1-.07-.07-.1.09-.1Z"/><path class="cls-1" d="M193.47,82.89l-.08,0,.06,0Z"/><polygon class="cls-1" points="159.26 99.23 159.22 99.18 159.26 99.25 159.26 99.23"/><path class="cls-1" d="M158.65,99.83h-.1l.07,0Z"/><path class="cls-1" d="M147.27,27.14l0,0Z"/><path class="cls-1" d="M114.93,192.85c.13.66.24,1.13.31,1.6a11.55,11.55,0,0,1,.09,1.32c.06,1.81.25,3.63.36,5.44.17,2.87.29,5.74.39,8.61,0,1.55,0,3.1,0,4.64,0,2.93,0,5.86,0,8.79a1.11,1.11,0,0,1-.25.86,6.88,6.88,0,0,1-.2-1c0-1.33,0-2.65,0-4,0-2.32,0-4.64,0-7,0-2.09-.11-4.19-.18-6.28-.06-1.66-.14-3.31-.2-5,0-1.49-.13-3-.11-4.47a5.22,5.22,0,0,0-.14-1.63A4.32,4.32,0,0,1,114.93,192.85Z"/><path class="cls-1" d="M112.88,260.73a5.24,5.24,0,0,1,0-2.46c.36-2.5.78-5,1.13-7.5.23-1.63.37-3.27.67-4.9a11.42,11.42,0,0,1,0,1.43c-.13,1.48-.29,2.95-.46,4.43s-.34,2.73-.53,4.09a34.8,34.8,0,0,1-.84,4.88Z"/><path class="cls-1" d="M115.6,233.92a42.52,42.52,0,0,1,0-6.95,20.56,20.56,0,0,1,.28,3.12C115.84,231.29,115.7,232.5,115.6,233.92Z"/><path class="cls-1" d="M112.53,207.17a4.53,4.53,0,0,1,.15.55,24.33,24.33,0,0,1-.09,2.56c0-.16,0-.32-.06-.47Z"/><path class="cls-1" d="M114.63,185.22v2.31l-.07.09v-2.4Z"/><path class="cls-1" d="M114.31,183.56c-.06-.12-.1-.17-.1-.21l-.06-2.12s0-.09.08-.14.08.07.08.1Z"/><path class="cls-1" d="M112.8,218.48c.08.49.32,1-.07,1.51-.23-.94-.21-.94.09-1.47Z"/><path class="cls-1" d="M111.88,239.11l0-.6H112l0,.59Z"/><path class="cls-1" d="M114.58,206.63a2.7,2.7,0,0,1,0-.28.37.37,0,0,1,0-.14s.07,0,.07.08a2.71,2.71,0,0,1,0,.29S114.61,206.61,114.58,206.63Z"/><path class="cls-1" d="M112.77,215.66l-.19.12c0-.1,0-.2,0-.3s.08-.07.12-.1Z"/><path class="cls-1" d="M109.83,263l0-.15-.05.11Z"/><path class="cls-1" d="M112.57,227.8a.58.58,0,0,1,0-.14l.1,0a.89.89,0,0,1,0,.14S112.61,227.79,112.57,227.8Z"/><polygon class="cls-1" points="112.73 216.99 112.62 216.92 112.75 216.88 112.73 216.99"/><polygon class="cls-1" points="112.73 214.68 112.61 214.61 112.75 214.56 112.73 214.68"/><polygon class="cls-1" points="112.67 211.55 112.56 211.54 112.61 211.41 112.67 211.55"/><polygon class="cls-1" points="113.98 193.55 113.89 193.55 113.93 193.42 113.98 193.55"/><polygon class="cls-1" points="113.56 188.2 113.64 188.2 113.6 188.31 113.56 188.2"/><polygon class="cls-1" points="112.82 218.52 112.8 218.42 112.8 218.48 112.82 218.52"/><polygon class="cls-1" points="112.65 221.19 112.68 221.3 112.58 221.28 112.65 221.19"/><path class="cls-1" d="M136.1,71.2c-.1-.12-.28-.22-.31-.36q-.63-3-1.31-6a14,14,0,0,1-.35-2.12,15.48,15.48,0,0,0-.63-3.24,1.66,1.66,0,0,1,.16-1.12l0,0a2.74,2.74,0,0,1,.28.57c.39,2,.71,4.09,1.14,6.11s.74,4.08,1,6.13Z"/><path class="cls-1" d="M145.83,114.63a5,5,0,0,1,.68,2.69A5,5,0,0,1,145.83,114.63Z"/><path class="cls-1" d="M132.63,53.06a1.29,1.29,0,0,1,.22.37.55.55,0,0,1-.06.27.16.16,0,0,1-.13,0,.42.42,0,0,1-.17-.53S132.63,53.06,132.63,53.06Z"/><path class="cls-1" d="M133.38,57a1.33,1.33,0,0,1,.25,1.4l0,0a1.35,1.35,0,0,1-.25-1.41Z"/><path class="cls-1" d="M136.08,71.23c0,.16.1.32.14.47s0,.14,0,.15-.18,0-.16-.16,0-.33,0-.49Z"/><path class="cls-1" d="M133,55.45a1.7,1.7,0,0,1,.29.31c0,.06,0,.18-.05.28-.23-.16-.13-.42-.21-.62Z"/><path class="cls-1" d="M133,55.42c-.05-.23-.26-.43,0-.79v.82Z"/><polygon class="cls-1" points="142.51 105.72 142.54 105.84 142.46 105.82 142.51 105.72"/><path class="cls-1" d="M132.42,47l0,.24,0-.28Z"/><polygon class="cls-1" points="137.16 71.7 137.14 71.58 137.22 71.61 137.16 71.7"/><path class="cls-1" d="M133.41,57s-.15,0-.15,0,0-.1.12.05Z"/><path class="cls-1" d="M146.66,124.11l-.13-.06.1.09Z"/><polygon class="cls-1" points="34.76 99.08 34.63 99.03 34.77 98.99 34.76 99.08"/><polygon class="cls-1" points="33.79 96.09 33.69 96.04 33.8 96.02 33.79 96.09"/><path class="cls-1" d="M127.05,30.1l0,0Z"/><path class="cls-1" d="M103.14,141.37a2.92,2.92,0,0,1,.24.37s-.09.13-.13.2a.28.28,0,0,1-.07-.13c0-.16,0-.31,0-.46Z"/><polygon class="cls-1" points="105.34 140.37 105.26 140.37 105.3 140.25 105.34 140.37"/><path class="cls-1" d="M104.82,148.38h-.38c0-.05,0-.1,0-.14l.17-.22Z"/><polygon class="cls-1" points="211.48 183.1 211.38 183.06 211.49 183.03 211.48 183.1"/><path class="cls-1" d="M33.37,72.65v-.37c.1,0,.2.06.3.11a.66.66,0,0,1,.15.14.84.84,0,0,1-.14.06Z"/><path class="cls-1" d="M231.11,161.27l-.24,0s.06.08.09.08.08,0,.11-.07Z"/><polygon class="cls-1" points="233.06 160.78 233.06 160.85 232.95 160.81 233.06 160.78"/><polygon class="cls-1" points="233.94 161.36 233.94 161.3 233.96 161.4 233.94 161.36"/><path class="cls-1" d="M45.45,85.12H44.17v-.06h1.28Z"/><path class="cls-1" d="M38,85.54c.47-.08,1-.17,1.43-.22a2.87,2.87,0,0,1,.68.13,12.33,12.33,0,0,1-2.14.06Z"/><polygon class="cls-1" points="32.97 85.71 33.07 85.76 32.96 85.79 32.97 85.71"/><polygon class="cls-1" points="38.74 84.39 38.83 84.44 38.72 84.46 38.74 84.39"/><path class="cls-1" d="M231,157.34l-.25-.12c.19-.1.12.13.21.16Z"/><path class="cls-1" d="M231.65,157.67a.85.85,0,0,1-.68-.33l0,0c.28,0,.62-.13.68.33Z"/><path class="cls-1" d="M232.34,158a.61.61,0,0,1-.69-.31l0,0c.32-.09.6-.1.7.3Z"/><path class="cls-1" d="M232.31,158a.54.54,0,0,1,.7.31l0,0c-.3.07-.58.06-.69-.3Z"/><path class="cls-1" d="M228,173.64c-.2,0-.39-.07-.59-.08a.76.76,0,0,1-.62-.34l0,0,.75.08a.51.51,0,0,1,.46.34Z"/><path class="cls-1" d="M224.63,172.81l-.14-.06a.44.44,0,0,1,.16,0,.5.5,0,0,1,.14.08Z"/><path class="cls-1" d="M221.19,172.13s0-.07.05-.07l.32,0s0,.08-.05.08S221.3,172.14,221.19,172.13Z"/><polygon class="cls-1" points="222.11 171.09 222.25 171.08 222.23 171.15 222.11 171.09"/><path class="cls-1" d="M226.75,173.22h-.47c-.16,0-.2-.08-.11-.19a.16.16,0,0,1,.15,0c.14.07.27.15.4.23Z"/><path class="cls-1" d="M227.93,173.67l.59,0a.41.41,0,0,1,.43.33l0,0a1.68,1.68,0,0,1-1-.31Z"/><path class="cls-1" d="M230,174.24A1,1,0,0,1,229,174l0,0c.39,0,.8-.15,1.06.29Z"/><polygon class="cls-1" points="225.15 171.74 225.27 171.77 225.17 171.8 225.15 171.74"/><polygon class="cls-1" points="230.98 173.64 230.95 173.54 230.96 173.61 230.98 173.64"/><path class="cls-1" d="M231,173.61l.06.08c.08-.09.06-.11,0-.05Z"/><path class="cls-1" d="M36.35,69.29a2.36,2.36,0,0,1,.4-.24c.07,0,.17.06.26.1-.07,0-.14.13-.21.14a2.59,2.59,0,0,1-.48,0Z"/><path class="cls-1" d="M231.35,184.9l-.11-.06.08.09Z"/><path class="cls-1" d="M32.68,83.53c.22-.37.65-.38,1-.48a3,3,0,0,1,1.5-.32,3.87,3.87,0,0,1-2.39.92Z"/><path class="cls-1" d="M233.3,172.3a3.71,3.71,0,0,1-2.26-1.15,3.73,3.73,0,0,1,2.3,1.1Z"/></svg>